<?xml version="1.0" encoding="UTF-8" standalone="no"?>
<!DOCTYPE svg PUBLIC "-//W3C//DTD SVG 1.1//EN" "http://www.w3.org/Graphics/SVG/1.1/DTD/svg11.dtd">
<!-- Created with Vectornator (http://vectornator.io/) -->
<svg height="100%" stroke-miterlimit="10" style="fill-rule:nonzero;clip-rule:evenodd;stroke-linecap:round;stroke-linejoin:round;" version="1.1" viewBox="0 0 1024.5 270" width="100%" xml:space="preserve" xmlns="http://www.w3.org/2000/svg" xmlns:xlink="http://www.w3.org/1999/xlink">
<defs/>
<g id="Untitled">
<g opacity="1">
<clipPath id="ClipPath">
<path d="M66.4766 26.0703L962 26.0703L962 242.836L66.4766 242.836L66.4766 26.0703Z"/>
</clipPath>
<g clip-path="url(#ClipPath)">
<clipPath id="ClipPath_2">
<path d="M81.4297 26.0703L946.848 26.0703C950.812 26.0703 954.617 27.6445 957.422 30.4492C960.227 33.25 961.801 37.0547 961.801 41.0195L961.801 227.836C961.801 231.801 960.227 235.605 957.422 238.41C954.617 241.215 950.812 242.789 946.848 242.789L81.4297 242.789C77.4648 242.789 73.6602 241.215 70.8555 238.41C68.0508 235.605 66.4766 231.801 66.4766 227.836L66.4766 41.0195C66.4766 37.0547 68.0508 33.25 70.8555 30.4492C73.6602 27.6445 77.4648 26.0703 81.4297 26.0703"/>
</clipPath>
<g clip-path="url(#ClipPath_2)">
<path d="M66.4766 26.0703L961.266 26.0703L961.266 242.836L66.4766 242.836L66.4766 26.0703Z" fill="#f2f2f2" fill-rule="nonzero" opacity="1" stroke="none"/>
</g>
</g>
</g>
<g opacity="1">
<clipPath id="ClipPath_3">
<path d="M75.8086 173.117L741.914 173.117L741.914 232.926L75.8086 232.926L75.8086 173.117Z"/>
</clipPath>
<g clip-path="url(#ClipPath_3)">
<clipPath id="ClipPath_4">
<path d="M87.7734 173.117L729.945 173.117C733.117 173.117 736.16 174.375 738.406 176.617C740.648 178.859 741.91 181.898 741.91 185.07L741.91 220.969C741.91 224.141 740.648 227.18 738.406 229.422C736.16 231.664 733.117 232.926 729.945 232.926L87.7734 232.926C84.6016 232.926 81.5586 231.664 79.3164 229.422C77.0703 227.18 75.8086 224.141 75.8086 220.969L75.8086 185.07C75.8086 181.898 77.0703 178.859 79.3164 176.617C81.5586 174.375 84.6016 173.117 87.7734 173.117"/>
</clipPath>
<g clip-path="url(#ClipPath_4)">
<path d="M87.7734 173.117L729.945 173.117C733.117 173.117 736.16 174.375 738.406 176.617C740.648 178.859 741.91 181.898 741.91 185.07L741.91 220.969C741.91 224.141 740.648 227.18 738.406 229.422C736.16 231.664 733.117 232.926 729.945 232.926L87.7734 232.926C84.6016 232.926 81.5586 231.664 79.3164 229.422C77.0703 227.18 75.8086 224.141 75.8086 220.969L75.8086 185.07C75.8086 181.898 77.0703 178.859 79.3164 176.617C81.5586 174.375 84.6016 173.117 87.7734 173.117" fill="none" opacity="1" stroke="#000000" stroke-linecap="butt" stroke-linejoin="miter" stroke-width="1.49498"/>
</g>
</g>
</g>
<g opacity="1">
<clipPath id="ClipPath_5">
<path d="M75.8633 35.8984L741.914 35.8984L741.914 96.4531L75.8633 96.4531L75.8633 35.8984Z"/>
</clipPath>
<g clip-path="url(#ClipPath_5)">
<clipPath id="ClipPath_6">
<path d="M87.8281 35.8984L729.895 35.8984C733.066 35.8984 736.109 37.1484 738.352 39.3789C740.598 41.6094 741.855 44.6328 741.855 47.7852L741.855 84.5625C741.855 87.7188 740.598 90.7422 738.352 92.9688C736.109 95.1992 733.066 96.4531 729.895 96.4531L87.8281 96.4531C84.6523 96.4531 81.6094 95.1992 79.3672 92.9688C77.125 90.7422 75.8633 87.7188 75.8633 84.5625L75.8633 47.7852C75.8633 44.6328 77.125 41.6094 79.3672 39.3789C81.6094 37.1484 84.6523 35.8984 87.8281 35.8984"/>
</clipPath>
<g clip-path="url(#ClipPath_6)">
<path d="M87.8281 35.8984L729.894 35.8984C733.066 35.8984 736.109 37.1484 738.351 39.3789C740.598 41.6094 741.855 44.6328 741.855 47.7852L741.855 84.5625C741.855 87.7187 740.598 90.7422 738.351 92.9687C736.109 95.1992 733.066 96.4531 729.894 96.4531L87.8281 96.4531C84.6523 96.4531 81.6094 95.1992 79.3672 92.9687C77.125 90.7422 75.8633 87.7187 75.8633 84.5625L75.8633 47.7852C75.8633 44.6328 77.125 41.6094 79.3672 39.3789C81.6094 37.1484 84.6523 35.8984 87.8281 35.8984" fill="none" opacity="1" stroke="#000000" stroke-linecap="butt" stroke-linejoin="miter" stroke-width="1.49098"/>
</g>
</g>
</g>
<g opacity="1">
<clipPath id="ClipPath_7">
<path d="M75.8086 105.051L741.914 105.051L741.914 164.855L75.8086 164.855L75.8086 105.051Z"/>
</clipPath>
<g clip-path="url(#ClipPath_7)">
<clipPath id="ClipPath_8">
<path d="M87.7734 105.051L729.945 105.051C733.117 105.051 736.16 106.309 738.406 108.551C740.648 110.793 741.91 113.832 741.91 117.004L741.91 152.902C741.91 156.074 740.648 159.113 738.406 161.355C736.16 163.598 733.117 164.855 729.945 164.855L87.7734 164.855C84.6016 164.855 81.5586 163.598 79.3164 161.355C77.0703 159.113 75.8086 156.074 75.8086 152.902L75.8086 117.004C75.8086 113.832 77.0703 110.793 79.3164 108.551C81.5586 106.309 84.6016 105.051 87.7734 105.051"/>
</clipPath>
<g clip-path="url(#ClipPath_8)">
<path d="M87.7734 105.051L729.945 105.051C733.117 105.051 736.16 106.309 738.406 108.551C740.648 110.793 741.91 113.832 741.91 117.004L741.91 152.902C741.91 156.074 740.648 159.113 738.406 161.355C736.16 163.598 733.117 164.855 729.945 164.855L87.7734 164.855C84.6016 164.855 81.5586 163.598 79.3164 161.355C77.0703 159.113 75.8086 156.074 75.8086 152.902L75.8086 117.004C75.8086 113.832 77.0703 110.793 79.3164 108.551C81.5586 106.309 84.6016 105.051 87.7734 105.051" fill="none" opacity="1" stroke="#000000" stroke-linecap="butt" stroke-linejoin="miter" stroke-width="1.49498"/>
</g>
</g>
</g>
<g opacity="1">
<clipPath id="ClipPath_9">
<path d="M292.332 44.5312L336.68 44.5312L336.68 88.8789L292.332 88.8789L292.332 44.5312Z"/>
</clipPath>
<g clip-path="url(#ClipPath_9)">
<path d="M292.332 44.5312L336.68 44.5312L336.68 88.8789L292.332 88.8789L292.332 44.5312Z" fill="#d78c42" fill-rule="nonzero" opacity="1" stroke="none"/>
</g>
</g>
<g opacity="1">
<path d="M308.349 72.1927L306.99 72.1927L306.99 63.1927L304.255 64.1927L304.255 62.9583L308.13 61.5052L308.349 61.5052L308.349 72.1927Z" fill="#000000" fill-rule="nonzero" opacity="1" stroke="none"/>
<path d="M312.714 73.099L311.542 73.099L315.995 61.5677L317.135 61.5677L312.714 73.099Z" fill="#000000" fill-rule="nonzero" opacity="1" stroke="none"/>
<path d="M324.157 68.6146L325.641 68.6146L325.641 69.724L324.157 69.724L324.157 72.1927L322.813 72.1927L322.813 69.724L317.969 69.724L317.969 68.9271L322.719 61.5677L324.157 61.5677L324.157 68.6146ZM319.5 68.6146L322.813 68.6146L322.813 63.4115L322.641 63.7083L319.5 68.6146Z" fill="#000000" fill-rule="nonzero" opacity="1" stroke="none"/>
</g>
<g opacity="1">
<clipPath id="ClipPath_10">
<path d="M367.242 44.5312L411.59 44.5312L411.59 88.8789L367.242 88.8789L367.242 44.5312Z"/>
</clipPath>
<g clip-path="url(#ClipPath_10)">
<path d="M367.242 44.5312L411.59 44.5312L411.59 88.8789L367.242 88.8789L367.242 44.5312Z" fill="#e9bf96" fill-rule="nonzero" opacity="1" stroke="none"/>
</g>
</g>
<g opacity="1">
<path d="M383.26 72.1927L381.9 72.1927L381.9 63.1927L379.166 64.1927L379.166 62.9583L383.041 61.5052L383.26 61.5052L383.26 72.1927Z" fill="#000000" fill-rule="nonzero" opacity="1" stroke="none"/>
<path d="M387.624 73.099L386.452 73.099L390.905 61.5677L392.046 61.5677L387.624 73.099Z" fill="#000000" fill-rule="nonzero" opacity="1" stroke="none"/>
<path d="M399.067 68.6146L400.552 68.6146L400.552 69.724L399.067 69.724L399.067 72.1927L397.724 72.1927L397.724 69.724L392.88 69.724L392.88 68.9271L397.63 61.5677L399.067 61.5677L399.067 68.6146ZM394.411 68.6146L397.724 68.6146L397.724 63.4115L397.552 63.7083L394.411 68.6146Z" fill="#000000" fill-rule="nonzero" opacity="1" stroke="none"/>
</g>
<g opacity="1">
<clipPath id="ClipPath_11">
<path d="M442.242 44.5312L486.59 44.5312L486.59 88.8789L442.242 88.8789L442.242 44.5312Z"/>
</clipPath>
<g clip-path="url(#ClipPath_11)">
<path d="M442.242 44.5312L486.59 44.5312L486.59 88.8789L442.242 88.8789L442.242 44.5312Z" fill="#e0525e" fill-rule="nonzero" opacity="1" stroke="none"/>
</g>
</g>
<g opacity="1">
<path d="M458.258 72.1927L456.899 72.1927L456.899 63.1927L454.165 64.1927L454.165 62.9583L458.04 61.5052L458.258 61.5052L458.258 72.1927Z" fill="#000000" fill-rule="nonzero" opacity="1" stroke="none"/>
<path d="M462.623 73.099L461.451 73.099L465.904 61.5677L467.045 61.5677L462.623 73.099Z" fill="#000000" fill-rule="nonzero" opacity="1" stroke="none"/>
<path d="M474.066 68.6146L475.551 68.6146L475.551 69.724L474.066 69.724L474.066 72.1927L472.722 72.1927L472.722 69.724L467.879 69.724L467.879 68.9271L472.629 61.5677L474.066 61.5677L474.066 68.6146ZM469.41 68.6146L472.722 68.6146L472.722 63.4115L472.551 63.7083L469.41 68.6146Z" fill="#000000" fill-rule="nonzero" opacity="1" stroke="none"/>
</g>
<g opacity="1">
<clipPath id="ClipPath_12">
<path d="M517.242 44.5312L561.59 44.5312L561.59 88.8789L517.242 88.8789L517.242 44.5312Z"/>
</clipPath>
<g clip-path="url(#ClipPath_12)">
<path d="M517.242 44.5312L561.59 44.5312L561.59 88.8789L517.242 88.8789L517.242 44.5312Z" fill="#f0a8ae" fill-rule="nonzero" opacity="1" stroke="none"/>
</g>
</g>
<g opacity="1">
<path d="M533.257 72.1927L531.898 72.1927L531.898 63.1927L529.164 64.1927L529.164 62.9583L533.039 61.5052L533.257 61.5052L533.257 72.1927Z" fill="#000000" fill-rule="nonzero" opacity="1" stroke="none"/>
<path d="M537.622 73.099L536.45 73.099L540.903 61.5677L542.044 61.5677L537.622 73.099Z" fill="#000000" fill-rule="nonzero" opacity="1" stroke="none"/>
<path d="M549.065 68.6146L550.549 68.6146L550.549 69.724L549.065 69.724L549.065 72.1927L547.721 72.1927L547.721 69.724L542.878 69.724L542.878 68.9271L547.628 61.5677L549.065 61.5677L549.065 68.6146ZM544.409 68.6146L547.721 68.6146L547.721 63.4115L547.549 63.7083L544.409 68.6146Z" fill="#000000" fill-rule="nonzero" opacity="1" stroke="none"/>
</g>
<g opacity="1">
<clipPath id="ClipPath_13">
<path d="M292.332 112.086L336.68 112.086L336.68 156.434L292.332 156.434L292.332 112.086Z"/>
</clipPath>
<g clip-path="url(#ClipPath_13)">
<path d="M292.332 112.086L336.68 112.086L336.68 156.434L292.332 156.434L292.332 112.086Z" fill="#e9bf96" fill-rule="nonzero" opacity="1" stroke="none"/>
</g>
</g>
<g opacity="1">
<path d="M308.349 139.746L306.99 139.746L306.99 130.746L304.255 131.746L304.255 130.511L308.13 129.058L308.349 129.058L308.349 139.746Z" fill="#000000" fill-rule="nonzero" opacity="1" stroke="none"/>
<path d="M312.714 140.652L311.542 140.652L315.995 129.121L317.135 129.121L312.714 140.652Z" fill="#000000" fill-rule="nonzero" opacity="1" stroke="none"/>
<path d="M324.157 136.168L325.641 136.168L325.641 137.277L324.157 137.277L324.157 139.746L322.813 139.746L322.813 137.277L317.969 137.277L317.969 136.48L322.719 129.121L324.157 129.121L324.157 136.168ZM319.5 136.168L322.813 136.168L322.813 130.964L322.641 131.261L319.5 136.168Z" fill="#000000" fill-rule="nonzero" opacity="1" stroke="none"/>
</g>
<g opacity="1">
<clipPath id="ClipPath_14">
<path d="M367.242 112.086L411.59 112.086L411.59 156.434L367.242 156.434L367.242 112.086Z"/>
</clipPath>
<g clip-path="url(#ClipPath_14)">
<path d="M367.242 112.086L411.59 112.086L411.59 156.434L367.242 156.434L367.242 112.086Z" fill="#e0525e" fill-rule="nonzero" opacity="1" stroke="none"/>
</g>
</g>
<g opacity="1">
<path d="M383.26 139.746L381.9 139.746L381.9 130.746L379.166 131.746L379.166 130.511L383.041 129.058L383.26 129.058L383.26 139.746Z" fill="#000000" fill-rule="nonzero" opacity="1" stroke="none"/>
<path d="M387.624 140.652L386.452 140.652L390.905 129.121L392.046 129.121L387.624 140.652Z" fill="#000000" fill-rule="nonzero" opacity="1" stroke="none"/>
<path d="M399.067 136.168L400.552 136.168L400.552 137.277L399.067 137.277L399.067 139.746L397.724 139.746L397.724 137.277L392.88 137.277L392.88 136.48L397.63 129.121L399.067 129.121L399.067 136.168ZM394.411 136.168L397.724 136.168L397.724 130.964L397.552 131.261L394.411 136.168Z" fill="#000000" fill-rule="nonzero" opacity="1" stroke="none"/>
</g>
<g opacity="1">
<clipPath id="ClipPath_15">
<path d="M442.242 112.086L486.59 112.086L486.59 156.434L442.242 156.434L442.242 112.086Z"/>
</clipPath>
<g clip-path="url(#ClipPath_15)">
<path d="M442.242 112.086L486.59 112.086L486.59 156.434L442.242 156.434L442.242 112.086Z" fill="#f0a8ae" fill-rule="nonzero" opacity="1" stroke="none"/>
</g>
</g>
<g opacity="1">
<path d="M458.258 139.746L456.899 139.746L456.899 130.746L454.165 131.746L454.165 130.511L458.04 129.058L458.258 129.058L458.258 139.746Z" fill="#000000" fill-rule="nonzero" opacity="1" stroke="none"/>
<path d="M462.623 140.652L461.451 140.652L465.904 129.121L467.045 129.121L462.623 140.652Z" fill="#000000" fill-rule="nonzero" opacity="1" stroke="none"/>
<path d="M474.066 136.168L475.551 136.168L475.551 137.277L474.066 137.277L474.066 139.746L472.722 139.746L472.722 137.277L467.879 137.277L467.879 136.48L472.629 129.121L474.066 129.121L474.066 136.168ZM469.41 136.168L472.722 136.168L472.722 130.964L472.551 131.261L469.41 136.168Z" fill="#000000" fill-rule="nonzero" opacity="1" stroke="none"/>
</g>
<g opacity="1">
<clipPath id="ClipPath_16">
<path d="M592.238 44.5312L636.586 44.5312L636.586 88.8789L592.238 88.8789L592.238 44.5312Z"/>
</clipPath>
<g clip-path="url(#ClipPath_16)">
<path d="M592.238 44.5312L636.586 44.5312L636.586 88.8789L592.238 88.8789L592.238 44.5312Z" fill="#94d1c7" fill-rule="nonzero" opacity="1" stroke="none"/>
</g>
</g>
<path d="M617.764 67.6615C617.764 69.2474 617.491 70.4232 616.951 71.1927C616.409 71.9544 615.565 72.3333 614.42 72.3333C613.284 72.3333 612.444 71.9583 611.905 71.2083C611.362 70.4583 611.08 69.3333 611.061 67.8333L611.061 66.0365C611.061 64.474 611.326 63.3138 611.858 62.5521C612.397 61.7943 613.248 61.4115 614.405 61.4115C615.549 61.4115 616.393 61.7826 616.936 62.5208C617.475 63.2513 617.752 64.3802 617.764 65.9115L617.764 67.6615ZM616.42 65.8177C616.42 64.6732 616.256 63.8411 615.936 63.3177C615.612 62.7865 615.1 62.5208 614.405 62.5208C613.717 62.5208 613.209 62.7826 612.889 63.3021C612.576 63.8255 612.412 64.6263 612.405 65.7083L612.405 67.8646C612.405 69.0208 612.569 69.8763 612.905 70.4271C613.237 70.9701 613.741 71.2396 614.42 71.2396C615.084 71.2396 615.58 70.9857 615.905 70.474C616.225 69.9544 616.397 69.138 616.42 68.0208L616.42 65.8177Z" fill="#000000" fill-rule="nonzero" opacity="1" stroke="none"/>
<g opacity="1">
<clipPath id="ClipPath_17">
<path d="M517.242 112.086L561.59 112.086L561.59 156.434L517.242 156.434L517.242 112.086Z"/>
</clipPath>
<g clip-path="url(#ClipPath_17)">
<path d="M517.242 112.086L561.59 112.086L561.59 156.434L517.242 156.434L517.242 112.086Z" fill="#f0a8ae" fill-rule="nonzero" opacity="1" stroke="none"/>
</g>
</g>
<g opacity="1">
<path d="M533.257 139.746L531.898 139.746L531.898 130.746L529.164 131.746L529.164 130.511L533.039 129.058L533.257 129.058L533.257 139.746Z" fill="#000000" fill-rule="nonzero" opacity="1" stroke="none"/>
<path d="M537.622 140.652L536.45 140.652L540.903 129.121L542.044 129.121L537.622 140.652Z" fill="#000000" fill-rule="nonzero" opacity="1" stroke="none"/>
<path d="M549.065 136.168L550.549 136.168L550.549 137.277L549.065 137.277L549.065 139.746L547.721 139.746L547.721 137.277L542.878 137.277L542.878 136.48L547.628 129.121L549.065 129.121L549.065 136.168ZM544.409 136.168L547.721 136.168L547.721 130.964L547.549 131.261L544.409 136.168Z" fill="#000000" fill-rule="nonzero" opacity="1" stroke="none"/>
</g>
<g opacity="1">
<clipPath id="ClipPath_18">
<path d="M292.332 179.609L356.734 179.609L356.734 223.953L292.332 223.953L292.332 179.609Z"/>
</clipPath>
<g clip-path="url(#ClipPath_18)">
<path d="M292.332 179.609L356.773 179.609L356.773 223.953L292.332 223.953L292.332 179.609Z" fill="#e9bf96" fill-rule="nonzero" opacity="1" stroke="none"/>
</g>
</g>
<g opacity="1">
<path d="M301.06 207.269L299.701 207.269L299.701 198.269L296.966 199.269L296.966 198.034L300.841 196.581L301.06 196.581L301.06 207.269Z" fill="#000000" fill-rule="nonzero" opacity="1" stroke="none"/>
<path d="M305.424 208.175L304.253 208.175L308.706 196.644L309.846 196.644L305.424 208.175Z" fill="#000000" fill-rule="nonzero" opacity="1" stroke="none"/>
<path d="M315.618 207.269L314.258 207.269L314.258 198.269L311.524 199.269L311.524 198.034L315.399 196.581L315.618 196.581L315.618 207.269Z" fill="#000000" fill-rule="nonzero" opacity="1" stroke="none"/>
<path d="M324.793 200.097L322.59 199.44L322.934 198.331L325.137 199.144L325.059 196.644L326.184 196.644L326.106 199.19L328.277 198.378L328.621 199.487L326.371 200.159L327.824 202.128L326.918 202.815L325.559 200.722L324.246 202.769L323.324 202.112L324.793 200.097Z" fill="#000000" fill-rule="nonzero" opacity="1" stroke="none"/>
</g>
<g opacity="1">
<path d="M340.403 202.878C340.403 204.347 340.094 205.472 339.481 206.253C338.875 207.026 337.988 207.409 336.824 207.409C335.668 207.409 334.781 207.03 334.168 206.269C333.551 205.511 333.235 204.417 333.215 202.987L333.215 201.019C333.215 199.542 333.52 198.417 334.137 197.644C334.762 196.874 335.653 196.487 336.809 196.487C337.965 196.487 338.848 196.874 339.465 197.644C340.078 198.405 340.391 199.495 340.403 200.909L340.403 202.878ZM338.293 200.722C338.293 199.847 338.172 199.214 337.934 198.815C337.692 198.409 337.317 198.206 336.809 198.206C336.309 198.206 335.938 198.401 335.699 198.784C335.469 199.159 335.344 199.753 335.324 200.565L335.324 203.144C335.324 204.019 335.442 204.667 335.684 205.081C335.922 205.499 336.301 205.706 336.824 205.706C337.332 205.706 337.703 205.511 337.934 205.112C338.16 204.706 338.281 204.089 338.293 203.253L338.293 200.722Z" fill="#000000" fill-rule="nonzero" opacity="1" stroke="none"/>
<path d="M342.465 209.94L341.356 209.362L341.622 208.878C341.942 208.284 342.11 207.694 342.122 207.112L342.122 205.472L343.903 205.472L343.903 206.94C343.903 207.472 343.766 208.011 343.497 208.565C343.223 209.116 342.879 209.573 342.465 209.94Z" fill="#000000" fill-rule="nonzero" opacity="1" stroke="none"/>
<path d="M347.631 201.019L348.756 201.019C349.288 201.019 349.682 200.89 349.944 200.628C350.202 200.358 350.334 199.999 350.334 199.55C350.334 199.124 350.202 198.792 349.944 198.55C349.682 198.312 349.327 198.19 348.881 198.19C348.483 198.19 348.147 198.308 347.866 198.534C347.592 198.753 347.459 199.042 347.459 199.394L345.35 199.394C345.35 198.843 345.498 198.347 345.803 197.909C346.104 197.464 346.522 197.112 347.053 196.862C347.592 196.612 348.186 196.487 348.834 196.487C349.959 196.487 350.838 196.761 351.475 197.3C352.12 197.843 352.444 198.581 352.444 199.519C352.444 200.011 352.291 200.456 351.991 200.862C351.698 201.269 351.307 201.581 350.819 201.8C351.42 202.019 351.87 202.343 352.163 202.769C352.452 203.198 352.6 203.702 352.6 204.284C352.6 205.233 352.256 205.995 351.569 206.565C350.881 207.128 349.967 207.409 348.834 207.409C347.772 207.409 346.901 207.136 346.225 206.581C345.557 206.019 345.225 205.28 345.225 204.362L347.334 204.362C347.334 204.761 347.479 205.081 347.772 205.331C348.073 205.581 348.444 205.706 348.881 205.706C349.389 205.706 349.788 205.577 350.069 205.315C350.35 205.058 350.491 204.702 350.491 204.253C350.491 203.202 349.905 202.675 348.741 202.675L347.631 202.675L347.631 201.019Z" fill="#000000" fill-rule="nonzero" opacity="1" stroke="none"/>
</g>
<g opacity="1">
<clipPath id="ClipPath_19">
<path d="M367.199 179.609L431.73 179.609L431.73 223.953L367.199 223.953L367.199 179.609Z"/>
</clipPath>
<g clip-path="url(#ClipPath_19)">
<path d="M367.199 179.609L431.641 179.609L431.641 223.953L367.199 223.953L367.199 179.609Z" fill="#e9bf96" fill-rule="nonzero" opacity="1" stroke="none"/>
</g>
</g>
<g opacity="1">
<path d="M375.985 207.269L374.625 207.269L374.625 198.269L371.891 199.269L371.891 198.034L375.766 196.581L375.985 196.581L375.985 207.269Z" fill="#000000" fill-rule="nonzero" opacity="1" stroke="none"/>
<path d="M380.349 208.175L379.178 208.175L383.631 196.644L384.771 196.644L380.349 208.175Z" fill="#000000" fill-rule="nonzero" opacity="1" stroke="none"/>
<path d="M393.058 207.269L386.105 207.269L386.105 206.3L389.777 202.206C390.316 201.593 390.691 201.093 390.902 200.706C391.109 200.323 391.214 199.921 391.214 199.503C391.214 198.952 391.046 198.499 390.714 198.144C390.379 197.78 389.933 197.597 389.371 197.597C388.691 197.597 388.168 197.792 387.793 198.175C387.425 198.562 387.246 199.093 387.246 199.769L385.886 199.769C385.886 198.792 386.199 197.999 386.824 197.394C387.457 196.792 388.308 196.487 389.371 196.487C390.359 196.487 391.14 196.749 391.714 197.269C392.285 197.792 392.574 198.483 392.574 199.347C392.574 200.39 391.906 201.636 390.574 203.081L387.73 206.159L393.058 206.159L393.058 207.269Z" fill="#000000" fill-rule="nonzero" opacity="1" stroke="none"/>
<path d="M399.718 200.097L397.515 199.44L397.859 198.331L400.062 199.144L399.984 196.644L401.109 196.644L401.031 199.19L403.202 198.378L403.546 199.487L401.296 200.159L402.749 202.128L401.843 202.815L400.484 200.722L399.171 202.769L398.249 202.112L399.718 200.097Z" fill="#000000" fill-rule="nonzero" opacity="1" stroke="none"/>
</g>
<g opacity="1">
<path d="M415.328 202.878C415.328 204.347 415.019 205.472 414.406 206.253C413.8 207.026 412.913 207.409 411.749 207.409C410.593 207.409 409.706 207.03 409.093 206.269C408.476 205.511 408.16 204.417 408.14 202.987L408.14 201.019C408.14 199.542 408.445 198.417 409.062 197.644C409.687 196.874 410.578 196.487 411.734 196.487C412.89 196.487 413.773 196.874 414.39 197.644C415.003 198.405 415.316 199.495 415.328 200.909L415.328 202.878ZM413.218 200.722C413.218 199.847 413.097 199.214 412.859 198.815C412.617 198.409 412.242 198.206 411.734 198.206C411.234 198.206 410.863 198.401 410.624 198.784C410.394 199.159 410.269 199.753 410.249 200.565L410.249 203.144C410.249 204.019 410.367 204.667 410.609 205.081C410.847 205.499 411.226 205.706 411.749 205.706C412.257 205.706 412.628 205.511 412.859 205.112C413.085 204.706 413.206 204.089 413.218 203.253L413.218 200.722Z" fill="#000000" fill-rule="nonzero" opacity="1" stroke="none"/>
<path d="M417.39 209.94L416.281 209.362L416.547 208.878C416.867 208.284 417.035 207.694 417.047 207.112L417.047 205.472L418.828 205.472L418.828 206.94C418.828 207.472 418.691 208.011 418.422 208.565C418.148 209.116 417.804 209.573 417.39 209.94Z" fill="#000000" fill-rule="nonzero" opacity="1" stroke="none"/>
<path d="M427.634 197.815L423.525 207.269L421.291 207.269L425.416 198.347L420.134 198.347L420.134 196.644L427.634 196.644L427.634 197.815Z" fill="#000000" fill-rule="nonzero" opacity="1" stroke="none"/>
</g>
<g opacity="1">
<clipPath id="ClipPath_20">
<path d="M442.199 179.609L506.73 179.609L506.73 223.953L442.199 223.953L442.199 179.609Z"/>
</clipPath>
<g clip-path="url(#ClipPath_20)">
<path d="M442.199 179.609L506.641 179.609L506.641 223.953L442.199 223.953L442.199 179.609Z" fill="#e0525e" fill-rule="nonzero" opacity="1" stroke="none"/>
</g>
</g>
<g opacity="1">
<path d="M450.984 207.269L449.624 207.269L449.624 198.269L446.89 199.269L446.89 198.034L450.765 196.581L450.984 196.581L450.984 207.269Z" fill="#000000" fill-rule="nonzero" opacity="1" stroke="none"/>
<path d="M455.348 208.175L454.176 208.175L458.63 196.644L459.77 196.644L455.348 208.175Z" fill="#000000" fill-rule="nonzero" opacity="1" stroke="none"/>
<path d="M468.057 207.269L461.104 207.269L461.104 206.3L464.776 202.206C465.315 201.593 465.69 201.093 465.901 200.706C466.108 200.323 466.213 199.921 466.213 199.503C466.213 198.952 466.045 198.499 465.713 198.144C465.377 197.78 464.932 197.597 464.37 197.597C463.69 197.597 463.166 197.792 462.791 198.175C462.424 198.562 462.245 199.093 462.245 199.769L460.885 199.769C460.885 198.792 461.198 197.999 461.823 197.394C462.455 196.792 463.307 196.487 464.37 196.487C465.358 196.487 466.139 196.749 466.713 197.269C467.284 197.792 467.573 198.483 467.573 199.347C467.573 200.39 466.905 201.636 465.573 203.081L462.729 206.159L468.057 206.159L468.057 207.269Z" fill="#000000" fill-rule="nonzero" opacity="1" stroke="none"/>
<path d="M474.717 200.097L472.514 199.44L472.857 198.331L475.061 199.144L474.982 196.644L476.107 196.644L476.029 199.19L478.201 198.378L478.545 199.487L476.295 200.159L477.748 202.128L476.842 202.815L475.482 200.722L474.17 202.769L473.248 202.112L474.717 200.097Z" fill="#000000" fill-rule="nonzero" opacity="1" stroke="none"/>
</g>
<g opacity="1">
<path d="M490.326 202.878C490.326 204.347 490.018 205.472 489.404 206.253C488.799 207.026 487.912 207.409 486.748 207.409C485.592 207.409 484.705 207.03 484.092 206.269C483.475 205.511 483.158 204.417 483.139 202.987L483.139 201.019C483.139 199.542 483.444 198.417 484.061 197.644C484.686 196.874 485.576 196.487 486.733 196.487C487.889 196.487 488.772 196.874 489.389 197.644C490.002 198.405 490.315 199.495 490.326 200.909L490.326 202.878ZM488.217 200.722C488.217 199.847 488.096 199.214 487.858 198.815C487.615 198.409 487.24 198.206 486.733 198.206C486.233 198.206 485.862 198.401 485.623 198.784C485.393 199.159 485.268 199.753 485.248 200.565L485.248 203.144C485.248 204.019 485.365 204.667 485.608 205.081C485.846 205.499 486.225 205.706 486.748 205.706C487.256 205.706 487.627 205.511 487.858 205.112C488.084 204.706 488.205 204.089 488.217 203.253L488.217 200.722Z" fill="#000000" fill-rule="nonzero" opacity="1" stroke="none"/>
<path d="M492.389 209.94L491.28 209.362L491.545 208.878C491.866 208.284 492.034 207.694 492.045 207.112L492.045 205.472L493.827 205.472L493.827 206.94C493.827 207.472 493.69 208.011 493.42 208.565C493.147 209.116 492.803 209.573 492.389 209.94Z" fill="#000000" fill-rule="nonzero" opacity="1" stroke="none"/>
<path d="M502.633 197.815L498.524 207.269L496.289 207.269L500.414 198.347L495.133 198.347L495.133 196.644L502.633 196.644L502.633 197.815Z" fill="#000000" fill-rule="nonzero" opacity="1" stroke="none"/>
</g>
<g opacity="1">
<clipPath id="ClipPath_21">
<path d="M517.195 179.609L581.375 179.609L581.375 223.953L517.195 223.953L517.195 179.609Z"/>
</clipPath>
<g clip-path="url(#ClipPath_21)">
<path d="M517.195 179.609L581.641 179.609L581.641 223.953L517.195 223.953L517.195 179.609Z" fill="#39ac99" fill-rule="nonzero" opacity="1" stroke="none"/>
</g>
</g>
<path d="M552.638 202.737C552.638 204.323 552.365 205.499 551.826 206.269C551.283 207.03 550.439 207.409 549.295 207.409C548.158 207.409 547.318 207.034 546.779 206.284C546.236 205.534 545.955 204.409 545.935 202.909L545.935 201.112C545.935 199.55 546.201 198.39 546.732 197.628C547.271 196.87 548.123 196.487 549.279 196.487C550.424 196.487 551.267 196.858 551.81 197.597C552.349 198.327 552.627 199.456 552.638 200.987L552.638 202.737ZM551.295 200.894C551.295 199.749 551.131 198.917 550.81 198.394C550.486 197.862 549.974 197.597 549.279 197.597C548.591 197.597 548.084 197.858 547.763 198.378C547.451 198.901 547.287 199.702 547.279 200.784L547.279 202.94C547.279 204.097 547.443 204.952 547.779 205.503C548.111 206.046 548.615 206.315 549.295 206.315C549.959 206.315 550.455 206.062 550.779 205.55C551.099 205.03 551.271 204.214 551.295 203.097L551.295 200.894Z" fill="#000000" fill-rule="nonzero" opacity="1" stroke="none"/>
<g opacity="1">
<clipPath id="ClipPath_22">
<path d="M592.195 179.609L656.375 179.609L656.375 223.953L592.195 223.953L592.195 179.609Z"/>
</clipPath>
<g clip-path="url(#ClipPath_22)">
<path d="M592.195 179.609L656.637 179.609L656.637 223.953L592.195 223.953L592.195 179.609Z" fill="#94d1c7" fill-rule="nonzero" opacity="1" stroke="none"/>
</g>
</g>
<path d="M627.637 202.737C627.637 204.323 627.364 205.499 626.825 206.269C626.282 207.03 625.438 207.409 624.293 207.409C623.157 207.409 622.317 207.034 621.778 206.284C621.235 205.534 620.954 204.409 620.934 202.909L620.934 201.112C620.934 199.55 621.2 198.39 621.731 197.628C622.27 196.87 623.122 196.487 624.278 196.487C625.422 196.487 626.266 196.858 626.809 197.597C627.348 198.327 627.625 199.456 627.637 200.987L627.637 202.737ZM626.293 200.894C626.293 199.749 626.129 198.917 625.809 198.394C625.485 197.862 624.973 197.597 624.278 197.597C623.59 197.597 623.082 197.858 622.762 198.378C622.45 198.901 622.286 199.702 622.278 200.784L622.278 202.94C622.278 204.097 622.442 204.952 622.778 205.503C623.11 206.046 623.614 206.315 624.293 206.315C624.957 206.315 625.454 206.062 625.778 205.55C626.098 205.03 626.27 204.214 626.293 203.097L626.293 200.894Z" fill="#000000" fill-rule="nonzero" opacity="1" stroke="none"/>
<g opacity="1">
<clipPath id="ClipPath_23">
<path d="M667.195 179.609L731 179.609L731 223.953L667.195 223.953L667.195 179.609Z"/>
</clipPath>
<g clip-path="url(#ClipPath_23)">
<path d="M667.195 179.609L730.945 179.609L730.945 223.953L667.195 223.953L667.195 179.609Z" fill="#94d1c7" fill-rule="nonzero" opacity="1" stroke="none"/>
</g>
</g>
<path d="M702.589 202.737C702.589 204.323 702.316 205.499 701.777 206.269C701.234 207.03 700.39 207.409 699.246 207.409C698.109 207.409 697.269 207.034 696.73 206.284C696.187 205.534 695.906 204.409 695.886 202.909L695.886 201.112C695.886 199.55 696.152 198.39 696.683 197.628C697.222 196.87 698.074 196.487 699.23 196.487C700.375 196.487 701.218 196.858 701.761 197.597C702.3 198.327 702.578 199.456 702.589 200.987L702.589 202.737ZM701.246 200.894C701.246 199.749 701.082 198.917 700.761 198.394C700.437 197.862 699.925 197.597 699.23 197.597C698.542 197.597 698.035 197.858 697.714 198.378C697.402 198.901 697.238 199.702 697.23 200.784L697.23 202.94C697.23 204.097 697.394 204.952 697.73 205.503C698.062 206.046 698.566 206.315 699.246 206.315C699.91 206.315 700.406 206.062 700.73 205.55C701.05 205.03 701.222 204.214 701.246 203.097L701.246 200.894Z" fill="#000000" fill-rule="nonzero" opacity="1" stroke="none"/>
<g opacity="1">
<clipPath id="ClipPath_24">
<path d="M816.422 88.5352L838.641 88.5352L838.641 110.754L816.422 110.754L816.422 88.5352Z"/>
</clipPath>
<g clip-path="url(#ClipPath_24)">
<clipPath id="ClipPath_25">
<path d="M827.531 88.5352C821.395 88.5352 816.422 93.5078 816.422 99.6445C816.422 105.777 821.395 110.754 827.531 110.754C833.664 110.754 838.641 105.777 838.641 99.6445C838.641 93.5078 833.664 88.5352 827.531 88.5352"/>
</clipPath>
<g clip-path="url(#ClipPath_25)">
<path d="M816.422 88.5352L838.641 88.5352L838.641 110.754L816.422 110.754L816.422 88.5352Z" fill="#94d1c7" fill-rule="nonzero" opacity="1" stroke="none"/>
</g>
</g>
</g>
<g opacity="1">
<clipPath id="ClipPath_26">
<path d="M816.422 121.816L838.641 121.816L838.641 144.035L816.422 144.035L816.422 121.816Z"/>
</clipPath>
<g clip-path="url(#ClipPath_26)">
<clipPath id="ClipPath_27">
<path d="M827.531 121.816C821.395 121.816 816.422 126.789 816.422 132.926C816.422 139.062 821.395 144.035 827.531 144.035C833.664 144.035 838.641 139.062 838.641 132.926C838.641 126.789 833.664 121.816 827.531 121.816"/>
</clipPath>
<g clip-path="url(#ClipPath_27)">
<path d="M816.422 121.816L838.641 121.816L838.641 144.035L816.422 144.035L816.422 121.816Z" fill="#e9bf96" fill-rule="nonzero" opacity="1" stroke="none"/>
</g>
</g>
</g>
<g opacity="1">
<clipPath id="ClipPath_28">
<path d="M816.422 155.25L838.641 155.25L838.641 177.465L816.422 177.465L816.422 155.25Z"/>
</clipPath>
<g clip-path="url(#ClipPath_28)">
<clipPath id="ClipPath_29">
<path d="M827.531 155.25C821.395 155.25 816.422 160.223 816.422 166.355C816.422 172.492 821.395 177.465 827.531 177.465C833.664 177.465 838.641 172.492 838.641 166.355C838.641 160.223 833.664 155.25 827.531 155.25"/>
</clipPath>
<g clip-path="url(#ClipPath_29)">
<path d="M816.422 155.25L838.641 155.25L838.641 177.465L816.422 177.465L816.422 155.25Z" fill="#f0a8ae" fill-rule="nonzero" opacity="1" stroke="none"/>
</g>
</g>
</g>
<g opacity="1">
<clipPath id="ClipPath_30">
<path d="M804.188 77.4688L948.473 77.4688L948.473 189.609L804.188 189.609L804.188 77.4688Z"/>
</clipPath>
<g clip-path="url(#ClipPath_30)">
<clipPath id="ClipPath_31">
<path d="M816.133 77.4688L936.527 77.4688C939.691 77.4688 942.73 78.7305 944.969 80.9805C947.211 83.2266 948.469 86.2773 948.469 89.457L948.469 177.621C948.469 180.801 947.211 183.852 944.969 186.098C942.73 188.348 939.691 189.609 936.527 189.609L816.133 189.609C812.965 189.609 809.926 188.348 807.688 186.098C805.445 183.852 804.188 180.801 804.188 177.621L804.188 89.457C804.188 86.2773 805.445 83.2266 807.688 80.9805C809.926 78.7305 812.965 77.4688 816.133 77.4688"/>
</clipPath>
<g clip-path="url(#ClipPath_31)">
<path d="M816.133 77.4688L936.527 77.4688C939.691 77.4688 942.73 78.7305 944.969 80.9805C947.211 83.2266 948.469 86.2773 948.469 89.457L948.469 177.621C948.469 180.801 947.211 183.852 944.969 186.098C942.73 188.348 939.691 189.609 936.527 189.609L816.133 189.609C812.965 189.609 809.926 188.348 807.687 186.098C805.445 183.852 804.187 180.801 804.187 177.621L804.187 89.457C804.187 86.2773 805.445 83.2266 807.687 80.9805C809.926 78.7305 812.965 77.4688 816.133 77.4688" fill="none" opacity="1" stroke="#000000" stroke-linecap="butt" stroke-linejoin="miter" stroke-width="1.49569"/>
</g>
</g>
</g>
<g opacity="1">
<path d="M161.819 71.9385L161.819 61.3135L164.819 61.3135C165.745 61.3135 166.562 61.5166 167.273 61.9229C167.98 62.3291 168.527 62.915 168.913 63.6729C169.308 64.4229 169.507 65.29 169.507 66.2666L169.507 66.9385C169.507 67.9502 169.312 68.8291 168.929 69.5791C168.542 70.3291 167.991 70.9072 167.273 71.3135C166.554 71.7197 165.714 71.9307 164.757 71.9385L161.819 71.9385ZM163.226 62.4541L163.226 70.7979L164.694 70.7979C165.777 70.7979 166.616 70.4658 167.21 69.7979C167.812 69.1221 168.116 68.165 168.116 66.9229L168.116 66.2979C168.116 65.0908 167.827 64.1533 167.257 63.4854C166.694 62.8096 165.89 62.4658 164.851 62.4541L163.226 62.4541Z" fill="#000000" fill-rule="nonzero" opacity="1" stroke="none"/>
<path d="M174.687 72.0791C173.613 72.0791 172.738 71.7315 172.062 71.0322C171.394 70.3252 171.062 69.3838 171.062 68.2041L171.062 67.9541C171.062 67.1729 171.21 66.4775 171.515 65.8604C171.816 65.2471 172.234 64.7666 172.765 64.4229C173.304 64.0713 173.89 63.8916 174.515 63.8916C175.546 63.8916 176.343 64.2315 176.906 64.9072C177.476 65.5869 177.765 66.5557 177.765 67.8135L177.765 68.376L172.421 68.376C172.441 69.1572 172.663 69.79 173.093 70.2666C173.531 70.7471 174.085 70.9854 174.765 70.9854C175.242 70.9854 175.644 70.8877 175.968 70.6885C176.3 70.4932 176.593 70.2354 176.843 69.9229L177.671 70.5635C177.003 71.5752 176.007 72.0791 174.687 72.0791ZM174.515 65.001C173.972 65.001 173.515 65.2002 173.14 65.5947C172.773 65.9932 172.55 66.5479 172.468 67.2666L176.421 67.2666L176.421 67.1572C176.378 66.4815 176.191 65.9541 175.859 65.5791C175.535 65.1963 175.085 65.001 174.515 65.001Z" fill="#000000" fill-rule="nonzero" opacity="1" stroke="none"/>
<path d="M183.936 69.8447C183.936 69.4815 183.796 69.2002 183.514 69.001C183.241 68.794 182.764 68.6182 182.077 68.4697C181.397 68.3252 180.858 68.1533 180.452 67.9541C180.054 67.7471 179.757 67.501 179.561 67.2197C179.374 66.9385 179.28 66.6025 179.28 66.2041C179.28 65.5596 179.55 65.0127 180.093 64.5635C180.643 64.1182 181.346 63.8916 182.202 63.8916C183.096 63.8916 183.819 64.126 184.374 64.5947C184.936 65.0557 185.218 65.6416 185.218 66.3604L183.858 66.3604C183.858 65.9854 183.694 65.669 183.374 65.4072C183.061 65.1377 182.671 65.001 182.202 65.001C181.702 65.001 181.311 65.1104 181.03 65.3291C180.757 65.54 180.624 65.8135 180.624 66.1572C180.624 66.4932 180.753 66.7432 181.014 66.9072C181.272 67.0635 181.737 67.2197 182.405 67.376C183.081 67.5244 183.628 67.7041 184.046 67.9229C184.46 68.1338 184.768 68.3838 184.968 68.6729C185.175 68.9658 185.28 69.3252 185.28 69.751C185.28 70.4619 184.999 71.0283 184.436 71.4541C183.874 71.8721 183.139 72.0791 182.233 72.0791C181.608 72.0791 181.05 71.9697 180.561 71.751C180.069 71.5244 179.686 71.2119 179.405 70.8135C179.132 70.4072 178.999 69.9697 178.999 69.501L180.358 69.501C180.378 69.9619 180.554 70.3252 180.889 70.5947C181.233 70.8565 181.679 70.9854 182.233 70.9854C182.741 70.9854 183.155 70.8838 183.468 70.6729C183.78 70.4658 183.936 70.1885 183.936 69.8447Z" fill="#000000" fill-rule="nonzero" opacity="1" stroke="none"/>
<path d="M188.505 71.9385L187.162 71.9385L187.162 64.0322L188.505 64.0322L188.505 71.9385ZM187.052 61.9385C187.052 61.7197 187.119 61.54 187.255 61.3916C187.388 61.2354 187.587 61.1572 187.849 61.1572C188.107 61.1572 188.306 61.2354 188.443 61.3916C188.576 61.54 188.646 61.7197 188.646 61.9385C188.646 62.1572 188.576 62.3408 188.443 62.4854C188.306 62.6338 188.107 62.7041 187.849 62.7041C187.587 62.7041 187.388 62.6338 187.255 62.4854C187.119 62.3408 187.052 62.1572 187.052 61.9385Z" fill="#000000" fill-rule="nonzero" opacity="1" stroke="none"/>
<path d="M190.353 67.9229C190.353 66.6963 190.634 65.7158 191.196 64.9854C191.767 64.2588 192.524 63.8916 193.462 63.8916C194.431 63.8916 195.185 64.2315 195.728 64.9072L195.79 64.0322L197.024 64.0322L197.024 71.751C197.024 72.7705 196.72 73.5713 196.118 74.1572C195.513 74.751 194.696 75.0479 193.665 75.0479C193.103 75.0479 192.544 74.9229 191.993 74.6729C191.45 74.4307 191.04 74.1025 190.759 73.6885L191.446 72.876C192.028 73.5947 192.735 73.9541 193.571 73.9541C194.228 73.9541 194.735 73.7666 195.103 73.3916C195.478 73.0166 195.665 72.4932 195.665 71.8291L195.665 71.1572C195.122 71.7744 194.384 72.0791 193.446 72.0791C192.528 72.0791 191.782 71.7119 191.212 70.9697C190.638 70.2197 190.353 69.2041 190.353 67.9229ZM191.712 68.0791C191.712 68.9658 191.892 69.665 192.259 70.1729C192.622 70.6846 193.134 70.9385 193.79 70.9385C194.642 70.9385 195.267 70.5557 195.665 69.7822L195.665 66.1729C195.247 65.415 194.626 65.0322 193.806 65.0322C193.149 65.0322 192.634 65.294 192.259 65.8135C191.892 66.3252 191.712 67.0791 191.712 68.0791Z" fill="#000000" fill-rule="nonzero" opacity="1" stroke="none"/>
<path d="M200.335 64.0322L200.382 65.0322C200.983 64.2744 201.772 63.8916 202.741 63.8916C204.417 63.8916 205.261 64.8369 205.272 66.7197L205.272 71.9385L203.929 71.9385L203.929 66.7041C203.917 66.1416 203.78 65.7275 203.522 65.4541C203.272 65.1729 202.874 65.0322 202.335 65.0322C201.897 65.0322 201.511 65.1533 201.179 65.3916C200.854 65.6221 200.6 65.9307 200.413 66.3135L200.413 71.9385L199.054 71.9385L199.054 64.0322L200.335 64.0322Z" fill="#000000" fill-rule="nonzero" opacity="1" stroke="none"/>
<path d="M212.286 64.0322L212.317 64.9072C212.899 64.2315 213.681 63.8916 214.661 63.8916C215.763 63.8916 216.513 64.3135 216.911 65.1572C217.181 64.7822 217.524 64.4815 217.942 64.251C218.368 64.0127 218.868 63.8916 219.442 63.8916C221.169 63.8916 222.052 64.8096 222.083 66.6416L222.083 71.9385L220.724 71.9385L220.724 66.7197C220.724 66.1572 220.591 65.7354 220.333 65.4541C220.083 65.1729 219.649 65.0322 219.036 65.0322C218.536 65.0322 218.118 65.1846 217.786 65.4854C217.462 65.79 217.274 66.1885 217.224 66.6885L217.224 71.9385L215.864 71.9385L215.864 66.7666C215.864 65.6104 215.302 65.0322 214.177 65.0322C213.29 65.0322 212.681 65.415 212.349 66.1729L212.349 71.9385L211.005 71.9385L211.005 64.0322L212.286 64.0322Z" fill="#000000" fill-rule="nonzero" opacity="1" stroke="none"/>
<path d="M223.766 67.9229C223.766 67.1416 223.914 66.4463 224.219 65.8291C224.52 65.2158 224.942 64.7432 225.485 64.4072C226.024 64.0635 226.645 63.8916 227.344 63.8916C228.414 63.8916 229.286 64.2666 229.954 65.0166C230.618 65.7588 230.954 66.7471 230.954 67.9854L230.954 68.0791C230.954 68.8525 230.801 69.544 230.5 70.1572C230.207 70.7627 229.786 71.2354 229.235 71.5791C228.692 71.915 228.067 72.0791 227.36 72.0791C226.286 72.0791 225.414 71.7119 224.75 70.9697C224.094 70.2197 223.766 69.2354 223.766 68.0166L223.766 67.9229ZM225.11 68.0791C225.11 68.9541 225.313 69.6572 225.719 70.1885C226.125 70.7197 226.672 70.9854 227.36 70.9854C228.047 70.9854 228.586 70.7197 228.985 70.1885C229.391 69.6494 229.594 68.8916 229.594 67.9229C229.594 67.0479 229.383 66.3447 228.969 65.8135C228.563 65.2744 228.02 65.001 227.344 65.001C226.676 65.001 226.133 65.2666 225.719 65.7979C225.313 66.3291 225.11 67.0908 225.11 68.0791Z" fill="#000000" fill-rule="nonzero" opacity="1" stroke="none"/>
<path d="M232.309 67.9229C232.309 66.7158 232.594 65.7432 233.168 65.001C233.75 64.2627 234.504 63.8916 235.434 63.8916C236.36 63.8916 237.094 64.2119 237.637 64.8447L237.637 60.7197L238.981 60.7197L238.981 71.9385L237.746 71.9385L237.668 71.0947C237.137 71.751 236.387 72.0791 235.418 72.0791C234.5 72.0791 233.75 71.7041 233.168 70.9541C232.594 70.2041 232.309 69.2315 232.309 68.0322L232.309 67.9229ZM233.668 68.0791C233.668 68.9775 233.848 69.6807 234.215 70.1885C234.59 70.6885 235.098 70.9385 235.746 70.9385C236.61 70.9385 237.239 70.5557 237.637 69.7822L237.637 66.1572C237.231 65.4072 236.606 65.0322 235.762 65.0322C235.106 65.0322 234.59 65.294 234.215 65.8135C233.848 66.3252 233.668 67.0791 233.668 68.0791Z" fill="#000000" fill-rule="nonzero" opacity="1" stroke="none"/>
<path d="M245.96 71.1572C245.429 71.7744 244.651 72.0791 243.632 72.0791C242.796 72.0791 242.155 71.8369 241.71 71.3447C241.273 70.8565 241.054 70.1338 241.054 69.1729L241.054 64.0322L242.398 64.0322L242.398 69.1416C242.398 70.3408 242.882 70.9385 243.851 70.9385C244.89 70.9385 245.577 70.5557 245.913 69.7822L245.913 64.0322L247.273 64.0322L247.273 71.9385L245.976 71.9385L245.96 71.1572Z" fill="#000000" fill-rule="nonzero" opacity="1" stroke="none"/>
<path d="M250.781 71.9385L249.437 71.9385L249.437 60.7197L250.781 60.7197L250.781 71.9385Z" fill="#000000" fill-rule="nonzero" opacity="1" stroke="none"/>
<path d="M256.222 72.0791C255.147 72.0791 254.272 71.7315 253.597 71.0322C252.929 70.3252 252.597 69.3838 252.597 68.2041L252.597 67.9541C252.597 67.1729 252.745 66.4775 253.05 65.8604C253.351 65.2471 253.769 64.7666 254.3 64.4229C254.839 64.0713 255.425 63.8916 256.05 63.8916C257.081 63.8916 257.878 64.2315 258.44 64.9072C259.011 65.5869 259.3 66.5557 259.3 67.8135L259.3 68.376L253.956 68.376C253.976 69.1572 254.198 69.79 254.628 70.2666C255.065 70.7471 255.62 70.9854 256.3 70.9854C256.776 70.9854 257.179 70.8877 257.503 70.6885C257.835 70.4932 258.128 70.2354 258.378 69.9229L259.206 70.5635C258.538 71.5752 257.542 72.0791 256.222 72.0791ZM256.05 65.001C255.507 65.001 255.05 65.2002 254.675 65.5947C254.308 65.9932 254.085 66.5479 254.003 67.2666L257.956 67.2666L257.956 67.1572C257.913 66.4815 257.726 65.9541 257.394 65.5791C257.069 65.1963 256.62 65.001 256.05 65.001Z" fill="#000000" fill-rule="nonzero" opacity="1" stroke="none"/>
</g>
<g opacity="1">
<path d="M158.926 133.918C157.727 133.575 156.852 133.153 156.301 132.653C155.758 132.145 155.489 131.52 155.489 130.778C155.489 129.934 155.821 129.243 156.489 128.7C157.153 128.149 158.024 127.872 159.098 127.872C159.825 127.872 160.477 128.012 161.051 128.293C161.622 128.575 162.067 128.965 162.38 129.465C162.692 129.965 162.848 130.508 162.848 131.09L161.442 131.09C161.442 130.457 161.239 129.957 160.833 129.59C160.426 129.215 159.848 129.028 159.098 129.028C158.411 129.028 157.872 129.184 157.489 129.497C157.102 129.801 156.911 130.215 156.911 130.747C156.911 131.184 157.09 131.555 157.458 131.856C157.821 132.149 158.446 132.418 159.333 132.668C160.215 132.918 160.911 133.196 161.411 133.497C161.911 133.801 162.278 134.149 162.52 134.543C162.758 134.942 162.88 135.411 162.88 135.95C162.88 136.817 162.54 137.508 161.864 138.028C161.196 138.54 160.301 138.793 159.176 138.793C158.446 138.793 157.762 138.657 157.13 138.387C156.493 138.106 156.005 137.723 155.661 137.231C155.317 136.743 155.145 136.192 155.145 135.575L156.567 135.575C156.567 136.211 156.801 136.715 157.27 137.09C157.747 137.465 158.383 137.653 159.176 137.653C159.915 137.653 160.481 137.504 160.88 137.2C161.274 136.899 161.473 136.489 161.473 135.965C161.473 135.446 161.286 135.043 160.911 134.762C160.544 134.473 159.883 134.192 158.926 133.918Z" fill="#000000" fill-rule="nonzero" opacity="1" stroke="none"/>
<path d="M167.734 138.793C166.66 138.793 165.785 138.446 165.109 137.747C164.441 137.04 164.109 136.098 164.109 134.918L164.109 134.668C164.109 133.887 164.258 133.192 164.562 132.575C164.863 131.961 165.281 131.481 165.812 131.137C166.352 130.786 166.937 130.606 167.562 130.606C168.594 130.606 169.391 130.946 169.953 131.622C170.523 132.301 170.812 133.27 170.812 134.528L170.812 135.09L165.469 135.09C165.488 135.872 165.711 136.504 166.141 136.981C166.578 137.461 167.133 137.7 167.812 137.7C168.289 137.7 168.691 137.602 169.016 137.403C169.348 137.207 169.641 136.95 169.891 136.637L170.719 137.278C170.051 138.29 169.055 138.793 167.734 138.793ZM167.562 131.715C167.02 131.715 166.562 131.915 166.187 132.309C165.82 132.707 165.598 133.262 165.516 133.981L169.469 133.981L169.469 133.872C169.426 133.196 169.238 132.668 168.906 132.293C168.582 131.911 168.133 131.715 167.562 131.715Z" fill="#000000" fill-rule="nonzero" opacity="1" stroke="none"/>
<path d="M175.546 137.7C176.023 137.7 176.445 137.555 176.812 137.262C177.175 136.973 177.374 136.606 177.406 136.168L178.687 136.168C178.663 136.618 178.507 137.051 178.218 137.465C177.937 137.872 177.554 138.196 177.078 138.434C176.597 138.672 176.085 138.793 175.546 138.793C174.472 138.793 173.617 138.434 172.984 137.715C172.347 136.997 172.031 136.02 172.031 134.778L172.031 134.543C172.031 133.786 172.171 133.106 172.453 132.512C172.734 131.911 173.14 131.442 173.671 131.106C174.203 130.774 174.828 130.606 175.546 130.606C176.429 130.606 177.163 130.872 177.749 131.403C178.331 131.934 178.644 132.622 178.687 133.465L177.406 133.465C177.374 132.957 177.179 132.54 176.828 132.215C176.484 131.883 176.054 131.715 175.546 131.715C174.859 131.715 174.32 131.965 173.937 132.465C173.562 132.957 173.374 133.668 173.374 134.606L173.374 134.856C173.374 135.762 173.562 136.465 173.937 136.965C174.312 137.457 174.847 137.7 175.546 137.7Z" fill="#000000" fill-rule="nonzero" opacity="1" stroke="none"/>
<path d="M185.091 137.872C184.56 138.489 183.783 138.793 182.763 138.793C181.927 138.793 181.287 138.551 180.841 138.059C180.404 137.571 180.185 136.848 180.185 135.887L180.185 130.747L181.529 130.747L181.529 135.856C181.529 137.055 182.013 137.653 182.982 137.653C184.021 137.653 184.709 137.27 185.045 136.497L185.045 130.747L186.404 130.747L186.404 138.653L185.107 138.653L185.091 137.872Z" fill="#000000" fill-rule="nonzero" opacity="1" stroke="none"/>
<path d="M192.271 131.965C192.061 131.934 191.838 131.918 191.6 131.918C190.713 131.918 190.115 132.293 189.803 133.043L189.803 138.653L188.443 138.653L188.443 130.747L189.771 130.747L189.787 131.668C190.225 130.961 190.85 130.606 191.662 130.606C191.932 130.606 192.135 130.645 192.271 130.715L192.271 131.965Z" fill="#000000" fill-rule="nonzero" opacity="1" stroke="none"/>
<path d="M194.972 138.653L193.628 138.653L193.628 130.747L194.972 130.747L194.972 138.653ZM193.518 128.653C193.518 128.434 193.585 128.254 193.722 128.106C193.854 127.95 194.054 127.872 194.315 127.872C194.573 127.872 194.772 127.95 194.909 128.106C195.042 128.254 195.112 128.434 195.112 128.653C195.112 128.872 195.042 129.055 194.909 129.2C194.772 129.348 194.573 129.418 194.315 129.418C194.054 129.418 193.854 129.348 193.722 129.2C193.585 129.055 193.518 128.872 193.518 128.653Z" fill="#000000" fill-rule="nonzero" opacity="1" stroke="none"/>
<path d="M198.975 128.84L198.975 130.747L200.444 130.747L200.444 131.793L198.975 131.793L198.975 136.7C198.975 137.012 199.038 137.254 199.163 137.418C199.295 137.575 199.522 137.653 199.834 137.653C199.991 137.653 200.202 137.622 200.475 137.559L200.475 138.653C200.12 138.747 199.776 138.793 199.444 138.793C198.838 138.793 198.381 138.614 198.069 138.247C197.764 137.883 197.616 137.368 197.616 136.7L197.616 131.793L196.178 131.793L196.178 130.747L197.616 130.747L197.616 128.84L198.975 128.84Z" fill="#000000" fill-rule="nonzero" opacity="1" stroke="none"/>
<path d="M204.609 136.668L206.453 130.747L207.89 130.747L204.719 139.872C204.226 141.184 203.445 141.84 202.375 141.84L202.109 141.825L201.609 141.731L201.609 140.637L201.984 140.668C202.441 140.668 202.797 140.575 203.047 140.387C203.305 140.2 203.515 139.86 203.672 139.372L203.984 138.559L201.156 130.747L202.64 130.747L204.609 136.668Z" fill="#000000" fill-rule="nonzero" opacity="1" stroke="none"/>
<path d="M214.073 130.747L214.104 131.622C214.686 130.946 215.467 130.606 216.448 130.606C217.549 130.606 218.299 131.028 218.698 131.872C218.967 131.497 219.311 131.196 219.729 130.965C220.155 130.727 220.655 130.606 221.229 130.606C222.955 130.606 223.838 131.524 223.869 133.356L223.869 138.653L222.51 138.653L222.51 133.434C222.51 132.872 222.377 132.45 222.119 132.168C221.869 131.887 221.436 131.747 220.823 131.747C220.323 131.747 219.905 131.899 219.573 132.2C219.248 132.504 219.061 132.903 219.01 133.403L219.01 138.653L217.651 138.653L217.651 133.481C217.651 132.325 217.088 131.747 215.963 131.747C215.077 131.747 214.467 132.129 214.135 132.887L214.135 138.653L212.791 138.653L212.791 130.747L214.073 130.747Z" fill="#000000" fill-rule="nonzero" opacity="1" stroke="none"/>
<path d="M225.552 134.637C225.552 133.856 225.701 133.161 226.006 132.543C226.306 131.93 226.728 131.457 227.271 131.122C227.81 130.778 228.431 130.606 229.131 130.606C230.201 130.606 231.072 130.981 231.74 131.731C232.404 132.473 232.74 133.461 232.74 134.7L232.74 134.793C232.74 135.567 232.588 136.258 232.287 136.872C231.994 137.477 231.572 137.95 231.021 138.293C230.478 138.629 229.853 138.793 229.146 138.793C228.072 138.793 227.201 138.426 226.537 137.684C225.881 136.934 225.552 135.95 225.552 134.731L225.552 134.637ZM226.896 134.793C226.896 135.668 227.099 136.372 227.506 136.903C227.912 137.434 228.459 137.7 229.146 137.7C229.834 137.7 230.373 137.434 230.771 136.903C231.177 136.364 231.381 135.606 231.381 134.637C231.381 133.762 231.17 133.059 230.756 132.528C230.349 131.989 229.806 131.715 229.131 131.715C228.463 131.715 227.92 131.981 227.506 132.512C227.099 133.043 226.896 133.805 226.896 134.793Z" fill="#000000" fill-rule="nonzero" opacity="1" stroke="none"/>
<path d="M234.095 134.637C234.095 133.43 234.381 132.457 234.955 131.715C235.537 130.977 236.291 130.606 237.22 130.606C238.146 130.606 238.881 130.926 239.424 131.559L239.424 127.434L240.767 127.434L240.767 138.653L239.533 138.653L239.455 137.809C238.924 138.465 238.174 138.793 237.205 138.793C236.287 138.793 235.537 138.418 234.955 137.668C234.381 136.918 234.095 135.946 234.095 134.747L234.095 134.637ZM235.455 134.793C235.455 135.692 235.634 136.395 236.002 136.903C236.377 137.403 236.884 137.653 237.533 137.653C238.396 137.653 239.025 137.27 239.424 136.497L239.424 132.872C239.017 132.122 238.392 131.747 237.549 131.747C236.892 131.747 236.377 132.008 236.002 132.528C235.634 133.04 235.455 133.793 235.455 134.793Z" fill="#000000" fill-rule="nonzero" opacity="1" stroke="none"/>
<path d="M247.746 137.872C247.215 138.489 246.438 138.793 245.418 138.793C244.582 138.793 243.942 138.551 243.496 138.059C243.059 137.571 242.84 136.848 242.84 135.887L242.84 130.747L244.184 130.747L244.184 135.856C244.184 137.055 244.668 137.653 245.637 137.653C246.676 137.653 247.364 137.27 247.7 136.497L247.7 130.747L249.059 130.747L249.059 138.653L247.762 138.653L247.746 137.872Z" fill="#000000" fill-rule="nonzero" opacity="1" stroke="none"/>
<path d="M252.567 138.653L251.223 138.653L251.223 127.434L252.567 127.434L252.567 138.653Z" fill="#000000" fill-rule="nonzero" opacity="1" stroke="none"/>
<path d="M258.008 138.793C256.934 138.793 256.059 138.446 255.383 137.747C254.715 137.04 254.383 136.098 254.383 134.918L254.383 134.668C254.383 133.887 254.532 133.192 254.836 132.575C255.137 131.961 255.555 131.481 256.086 131.137C256.625 130.786 257.211 130.606 257.836 130.606C258.868 130.606 259.664 130.946 260.227 131.622C260.797 132.301 261.086 133.27 261.086 134.528L261.086 135.09L255.743 135.09C255.762 135.872 255.985 136.504 256.414 136.981C256.852 137.461 257.407 137.7 258.086 137.7C258.563 137.7 258.965 137.602 259.289 137.403C259.621 137.207 259.914 136.95 260.164 136.637L260.993 137.278C260.325 138.29 259.328 138.793 258.008 138.793ZM257.836 131.715C257.293 131.715 256.836 131.915 256.461 132.309C256.094 132.707 255.871 133.262 255.789 133.981L259.743 133.981L259.743 133.872C259.7 133.196 259.512 132.668 259.18 132.293C258.856 131.911 258.407 131.715 257.836 131.715Z" fill="#000000" fill-rule="nonzero" opacity="1" stroke="none"/>
</g>
<g opacity="1">
<path d="M846.399 104.876L845.008 104.876L845.008 94.2513L846.399 94.2513L846.399 104.876Z" fill="#000000" fill-rule="nonzero" opacity="1" stroke="none"/>
<path d="M850.028 96.97L850.075 97.97C850.676 97.2122 851.465 96.8294 852.434 96.8294C854.11 96.8294 854.953 97.7747 854.965 99.6575L854.965 104.876L853.621 104.876L853.621 99.6419C853.61 99.0794 853.473 98.6654 853.215 98.3919C852.965 98.1107 852.567 97.97 852.028 97.97C851.59 97.97 851.203 98.0911 850.871 98.3294C850.547 98.5599 850.293 98.8685 850.106 99.2513L850.106 104.876L848.746 104.876L848.746 96.97L850.028 96.97Z" fill="#000000" fill-rule="nonzero" opacity="1" stroke="none"/>
<path d="M857.668 104.876L857.668 98.0169L856.418 98.0169L856.418 96.97L857.668 96.97L857.668 96.1732C857.668 95.3216 857.891 94.6654 858.34 94.2044C858.797 93.7357 859.438 93.5013 860.262 93.5013C860.574 93.5013 860.887 93.5443 861.199 93.6263L861.121 94.72C860.891 94.681 860.645 94.6575 860.387 94.6575C859.949 94.6575 859.61 94.7904 859.371 95.0482C859.129 95.2982 859.012 95.6654 859.012 96.1419L859.012 96.97L860.699 96.97L860.699 98.0169L859.012 98.0169L859.012 104.876L857.668 104.876Z" fill="#000000" fill-rule="nonzero" opacity="1" stroke="none"/>
<path d="M861.843 100.861C861.843 100.079 861.992 99.3841 862.297 98.7669C862.597 98.1536 863.019 97.681 863.562 97.345C864.101 97.0013 864.722 96.8294 865.422 96.8294C866.492 96.8294 867.363 97.2044 868.031 97.9544C868.695 98.6966 869.031 99.6849 869.031 100.923L869.031 101.017C869.031 101.79 868.879 102.482 868.578 103.095C868.285 103.701 867.863 104.173 867.312 104.517C866.769 104.853 866.144 105.017 865.437 105.017C864.363 105.017 863.492 104.65 862.828 103.908C862.172 103.158 861.843 102.173 861.843 100.954L861.843 100.861ZM863.187 101.017C863.187 101.892 863.39 102.595 863.797 103.126C864.203 103.658 864.75 103.923 865.437 103.923C866.125 103.923 866.664 103.658 867.062 103.126C867.468 102.587 867.672 101.829 867.672 100.861C867.672 99.9857 867.461 99.2825 867.047 98.7513C866.64 98.2122 866.097 97.9388 865.422 97.9388C864.754 97.9388 864.211 98.2044 863.797 98.7357C863.39 99.2669 863.187 100.029 863.187 101.017Z" fill="#000000" fill-rule="nonzero" opacity="1" stroke="none"/>
<path d="M874.543 98.1888C874.332 98.1575 874.109 98.1419 873.871 98.1419C872.984 98.1419 872.386 98.5169 872.074 99.2669L872.074 104.876L870.714 104.876L870.714 96.97L872.043 96.97L872.058 97.8919C872.496 97.1849 873.121 96.8294 873.933 96.8294C874.203 96.8294 874.406 96.8685 874.543 96.9388L874.543 98.1888Z" fill="#000000" fill-rule="nonzero" opacity="1" stroke="none"/>
<path d="M877.055 96.97L877.086 97.845C877.668 97.1693 878.45 96.8294 879.43 96.8294C880.532 96.8294 881.282 97.2513 881.68 98.095C881.95 97.72 882.293 97.4193 882.711 97.1888C883.137 96.9505 883.637 96.8294 884.211 96.8294C885.938 96.8294 886.821 97.7474 886.852 99.5794L886.852 104.876L885.493 104.876L885.493 99.6575C885.493 99.095 885.36 98.6732 885.102 98.3919C884.852 98.1107 884.418 97.97 883.805 97.97C883.305 97.97 882.887 98.1224 882.555 98.4232C882.231 98.7279 882.043 99.1263 881.993 99.6263L881.993 104.876L880.633 104.876L880.633 99.7044C880.633 98.5482 880.071 97.97 878.946 97.97C878.059 97.97 877.45 98.3529 877.118 99.1107L877.118 104.876L875.774 104.876L875.774 96.97L877.055 96.97Z" fill="#000000" fill-rule="nonzero" opacity="1" stroke="none"/>
<path d="M893.769 104.876C893.683 104.72 893.617 104.447 893.566 104.048C892.941 104.697 892.191 105.017 891.316 105.017C890.543 105.017 889.91 104.798 889.41 104.361C888.91 103.923 888.66 103.368 888.66 102.689C888.66 101.868 888.972 101.228 889.597 100.767C890.222 100.31 891.101 100.079 892.238 100.079L893.551 100.079L893.551 99.47C893.551 98.9935 893.41 98.6185 893.129 98.345C892.847 98.0638 892.43 97.9232 891.879 97.9232C891.398 97.9232 890.992 98.0443 890.66 98.2825C890.336 98.5247 890.176 98.8216 890.176 99.1732L888.816 99.1732C888.816 98.7786 888.957 98.3997 889.238 98.0325C889.519 97.6575 889.898 97.3685 890.379 97.1575C890.855 96.9388 891.383 96.8294 891.957 96.8294C892.871 96.8294 893.586 97.0599 894.097 97.5169C894.617 97.9661 894.883 98.5911 894.894 99.3919L894.894 103.033C894.894 103.751 894.988 104.329 895.176 104.767L895.176 104.876L893.769 104.876ZM891.519 103.845C891.945 103.845 892.347 103.736 892.722 103.517C893.105 103.298 893.383 103.013 893.551 102.658L893.551 101.048L892.488 101.048C890.832 101.048 890.004 101.533 890.004 102.501C890.004 102.919 890.144 103.247 890.426 103.486C890.715 103.728 891.082 103.845 891.519 103.845Z" fill="#000000" fill-rule="nonzero" opacity="1" stroke="none"/>
<path d="M898.856 95.0638L898.856 96.97L900.324 96.97L900.324 98.0169L898.856 98.0169L898.856 102.923C898.856 103.236 898.918 103.478 899.043 103.642C899.176 103.798 899.402 103.876 899.715 103.876C899.871 103.876 900.082 103.845 900.356 103.783L900.356 104.876C900 104.97 899.656 105.017 899.324 105.017C898.719 105.017 898.262 104.837 897.949 104.47C897.645 104.107 897.496 103.591 897.496 102.923L897.496 98.0169L896.059 98.0169L896.059 96.97L897.496 96.97L897.496 95.0638L898.856 95.0638Z" fill="#000000" fill-rule="nonzero" opacity="1" stroke="none"/>
<path d="M903.365 104.876L902.021 104.876L902.021 96.97L903.365 96.97L903.365 104.876ZM901.912 94.8763C901.912 94.6575 901.978 94.4779 902.115 94.3294C902.247 94.1732 902.447 94.095 902.708 94.095C902.966 94.095 903.165 94.1732 903.302 94.3294C903.435 94.4779 903.505 94.6575 903.505 94.8763C903.505 95.095 903.435 95.2786 903.302 95.4232C903.165 95.5716 902.966 95.6419 902.708 95.6419C902.447 95.6419 902.247 95.5716 902.115 95.4232C901.978 95.2786 901.912 95.095 901.912 94.8763Z" fill="#000000" fill-rule="nonzero" opacity="1" stroke="none"/>
<path d="M905.181 100.861C905.181 100.079 905.329 99.3841 905.634 98.7669C905.935 98.1536 906.356 97.681 906.899 97.345C907.438 97.0013 908.06 96.8294 908.759 96.8294C909.829 96.8294 910.7 97.2044 911.368 97.9544C912.032 98.6966 912.368 99.6849 912.368 100.923L912.368 101.017C912.368 101.79 912.216 102.482 911.915 103.095C911.622 103.701 911.2 104.173 910.649 104.517C910.106 104.853 909.481 105.017 908.774 105.017C907.7 105.017 906.829 104.65 906.165 103.908C905.509 103.158 905.181 102.173 905.181 100.954L905.181 100.861ZM906.524 101.017C906.524 101.892 906.728 102.595 907.134 103.126C907.54 103.658 908.087 103.923 908.774 103.923C909.462 103.923 910.001 103.658 910.399 103.126C910.806 102.587 911.009 101.829 911.009 100.861C911.009 99.9857 910.798 99.2825 910.384 98.7513C909.978 98.2122 909.435 97.9388 908.759 97.9388C908.091 97.9388 907.548 98.2044 907.134 98.7357C906.728 99.2669 906.524 100.029 906.524 101.017Z" fill="#000000" fill-rule="nonzero" opacity="1" stroke="none"/>
<path d="M915.333 96.97L915.38 97.97C915.981 97.2122 916.77 96.8294 917.739 96.8294C919.415 96.8294 920.259 97.7747 920.27 99.6575L920.27 104.876L918.927 104.876L918.927 99.6419C918.915 99.0794 918.778 98.6654 918.52 98.3919C918.27 98.1107 917.872 97.97 917.333 97.97C916.895 97.97 916.509 98.0911 916.177 98.3294C915.852 98.5599 915.599 98.8685 915.411 99.2513L915.411 104.876L914.052 104.876L914.052 96.97L915.333 96.97Z" fill="#000000" fill-rule="nonzero" opacity="1" stroke="none"/>
</g>
<g opacity="1">
<path d="M847.196 134.815L847.399 136.206L847.696 134.94L849.805 127.534L850.977 127.534L853.039 134.94L853.321 136.237L853.555 134.799L855.196 127.534L856.602 127.534L854.039 138.159L852.758 138.159L850.571 130.409L850.399 129.596L850.227 130.409L847.961 138.159L846.68 138.159L844.117 127.534L845.508 127.534L847.196 134.815Z" fill="#000000" fill-rule="nonzero" opacity="1" stroke="none"/>
<path d="M862.836 138.159C862.75 138.003 862.684 137.729 862.633 137.331C862.008 137.979 861.258 138.299 860.383 138.299C859.609 138.299 858.977 138.081 858.477 137.643C857.977 137.206 857.727 136.651 857.727 135.971C857.727 135.151 858.039 134.51 858.664 134.049C859.289 133.592 860.168 133.362 861.305 133.362L862.617 133.362L862.617 132.753C862.617 132.276 862.477 131.901 862.195 131.628C861.914 131.346 861.496 131.206 860.945 131.206C860.465 131.206 860.059 131.327 859.727 131.565C859.402 131.807 859.242 132.104 859.242 132.456L857.883 132.456C857.883 132.061 858.024 131.682 858.305 131.315C858.586 130.94 858.965 130.651 859.445 130.44C859.922 130.221 860.449 130.112 861.024 130.112C861.938 130.112 862.652 130.342 863.164 130.799C863.684 131.249 863.949 131.874 863.961 132.674L863.961 136.315C863.961 137.034 864.055 137.612 864.242 138.049L864.242 138.159L862.836 138.159ZM860.586 137.128C861.012 137.128 861.414 137.018 861.789 136.799C862.172 136.581 862.449 136.296 862.617 135.94L862.617 134.331L861.555 134.331C859.899 134.331 859.07 134.815 859.07 135.784C859.07 136.202 859.211 136.53 859.492 136.768C859.781 137.01 860.149 137.128 860.586 137.128Z" fill="#000000" fill-rule="nonzero" opacity="1" stroke="none"/>
<path d="M869.907 131.471C869.696 131.44 869.473 131.424 869.235 131.424C868.348 131.424 867.75 131.799 867.438 132.549L867.438 138.159L866.078 138.159L866.078 130.253L867.407 130.253L867.422 131.174C867.86 130.467 868.485 130.112 869.297 130.112C869.567 130.112 869.77 130.151 869.907 130.221L869.907 131.471Z" fill="#000000" fill-rule="nonzero" opacity="1" stroke="none"/>
<path d="M872.419 130.253L872.466 131.253C873.068 130.495 873.857 130.112 874.825 130.112C876.501 130.112 877.345 131.057 877.357 132.94L877.357 138.159L876.013 138.159L876.013 132.924C876.001 132.362 875.864 131.948 875.607 131.674C875.357 131.393 874.958 131.253 874.419 131.253C873.982 131.253 873.595 131.374 873.263 131.612C872.939 131.842 872.685 132.151 872.497 132.534L872.497 138.159L871.138 138.159L871.138 130.253L872.419 130.253Z" fill="#000000" fill-rule="nonzero" opacity="1" stroke="none"/>
<path d="M880.857 138.159L879.513 138.159L879.513 130.253L880.857 130.253L880.857 138.159ZM879.403 128.159C879.403 127.94 879.47 127.76 879.607 127.612C879.739 127.456 879.939 127.378 880.2 127.378C880.458 127.378 880.657 127.456 880.794 127.612C880.927 127.76 880.997 127.94 880.997 128.159C880.997 128.378 880.927 128.561 880.794 128.706C880.657 128.854 880.458 128.924 880.2 128.924C879.939 128.924 879.739 128.854 879.607 128.706C879.47 128.561 879.403 128.378 879.403 128.159Z" fill="#000000" fill-rule="nonzero" opacity="1" stroke="none"/>
<path d="M884.297 130.253L884.344 131.253C884.946 130.495 885.735 130.112 886.704 130.112C888.38 130.112 889.223 131.057 889.235 132.94L889.235 138.159L887.891 138.159L887.891 132.924C887.88 132.362 887.743 131.948 887.485 131.674C887.235 131.393 886.837 131.253 886.297 131.253C885.86 131.253 885.473 131.374 885.141 131.612C884.817 131.842 884.563 132.151 884.376 132.534L884.376 138.159L883.016 138.159L883.016 130.253L884.297 130.253Z" fill="#000000" fill-rule="nonzero" opacity="1" stroke="none"/>
<path d="M890.954 134.143C890.954 132.917 891.235 131.936 891.797 131.206C892.368 130.479 893.125 130.112 894.063 130.112C895.032 130.112 895.786 130.452 896.329 131.128L896.391 130.253L897.625 130.253L897.625 137.971C897.625 138.991 897.321 139.792 896.719 140.378C896.114 140.971 895.297 141.268 894.266 141.268C893.704 141.268 893.145 141.143 892.594 140.893C892.051 140.651 891.641 140.323 891.36 139.909L892.047 139.096C892.629 139.815 893.336 140.174 894.172 140.174C894.829 140.174 895.336 139.987 895.704 139.612C896.079 139.237 896.266 138.714 896.266 138.049L896.266 137.378C895.723 137.995 894.985 138.299 894.047 138.299C893.129 138.299 892.383 137.932 891.813 137.19C891.239 136.44 890.954 135.424 890.954 134.143ZM892.313 134.299C892.313 135.186 892.493 135.885 892.86 136.393C893.223 136.905 893.735 137.159 894.391 137.159C895.243 137.159 895.868 136.776 896.266 136.003L896.266 132.393C895.848 131.635 895.227 131.253 894.407 131.253C893.75 131.253 893.235 131.514 892.86 132.034C892.493 132.546 892.313 133.299 892.313 134.299Z" fill="#000000" fill-rule="nonzero" opacity="1" stroke="none"/>
</g>
<g opacity="1">
<path d="M850.914 166.684L846.305 166.684L846.305 170.45L851.649 170.45L851.649 171.591L844.899 171.591L844.899 160.966L851.586 160.966L851.586 162.106L846.305 162.106L846.305 165.528L850.914 165.528L850.914 166.684Z" fill="#000000" fill-rule="nonzero" opacity="1" stroke="none"/>
<path d="M857.006 164.903C856.795 164.872 856.573 164.856 856.334 164.856C855.448 164.856 854.85 165.231 854.537 165.981L854.537 171.591L853.178 171.591L853.178 163.684L854.506 163.684L854.522 164.606C854.959 163.899 855.584 163.544 856.397 163.544C856.666 163.544 856.869 163.583 857.006 163.653L857.006 164.903Z" fill="#000000" fill-rule="nonzero" opacity="1" stroke="none"/>
<path d="M862.066 164.903C861.855 164.872 861.632 164.856 861.394 164.856C860.507 164.856 859.909 165.231 859.597 165.981L859.597 171.591L858.237 171.591L858.237 163.684L859.566 163.684L859.581 164.606C860.019 163.899 860.644 163.544 861.456 163.544C861.726 163.544 861.929 163.583 862.066 163.653L862.066 164.903Z" fill="#000000" fill-rule="nonzero" opacity="1" stroke="none"/>
<path d="M862.953 167.575C862.953 166.794 863.102 166.098 863.406 165.481C863.707 164.868 864.129 164.395 864.672 164.059C865.211 163.716 865.832 163.544 866.531 163.544C867.602 163.544 868.473 163.919 869.141 164.669C869.805 165.411 870.141 166.399 870.141 167.637L870.141 167.731C870.141 168.505 869.988 169.196 869.688 169.809C869.395 170.415 868.973 170.887 868.422 171.231C867.879 171.567 867.254 171.731 866.547 171.731C865.473 171.731 864.602 171.364 863.938 170.622C863.281 169.872 862.953 168.887 862.953 167.669L862.953 167.575ZM864.297 167.731C864.297 168.606 864.5 169.309 864.906 169.841C865.312 170.372 865.859 170.637 866.547 170.637C867.234 170.637 867.773 170.372 868.172 169.841C868.578 169.302 868.781 168.544 868.781 167.575C868.781 166.7 868.57 165.997 868.156 165.466C867.75 164.927 867.207 164.653 866.531 164.653C865.863 164.653 865.32 164.919 864.906 165.45C864.5 165.981 864.297 166.743 864.297 167.731Z" fill="#000000" fill-rule="nonzero" opacity="1" stroke="none"/>
<path d="M875.652 164.903C875.441 164.872 875.219 164.856 874.98 164.856C874.094 164.856 873.496 165.231 873.184 165.981L873.184 171.591L871.824 171.591L871.824 163.684L873.152 163.684L873.168 164.606C873.605 163.899 874.23 163.544 875.043 163.544C875.312 163.544 875.516 163.583 875.652 163.653L875.652 164.903Z" fill="#000000" fill-rule="nonzero" opacity="1" stroke="none"/>
</g>
<g opacity="1">
<path d="M107.324 207.014L107.324 196.389L110.324 196.389C111.25 196.389 112.067 196.592 112.778 196.999C113.485 197.405 114.031 197.991 114.418 198.749C114.813 199.499 115.012 200.366 115.012 201.342L115.012 202.014C115.012 203.026 114.817 203.905 114.434 204.655C114.047 205.405 113.496 205.983 112.778 206.389C112.059 206.796 111.219 207.007 110.262 207.014L107.324 207.014ZM108.731 197.53L108.731 205.874L110.199 205.874C111.281 205.874 112.121 205.542 112.715 204.874C113.317 204.198 113.621 203.241 113.621 201.999L113.621 201.374C113.621 200.167 113.332 199.229 112.762 198.561C112.199 197.885 111.395 197.542 110.356 197.53L108.731 197.53Z" fill="#000000" fill-rule="nonzero" opacity="1" stroke="none"/>
<path d="M116.567 202.999C116.567 202.217 116.715 201.522 117.02 200.905C117.321 200.292 117.743 199.819 118.286 199.483C118.825 199.139 119.446 198.967 120.145 198.967C121.215 198.967 122.086 199.342 122.754 200.092C123.418 200.835 123.754 201.823 123.754 203.061L123.754 203.155C123.754 203.928 123.602 204.62 123.301 205.233C123.008 205.839 122.586 206.311 122.036 206.655C121.493 206.991 120.868 207.155 120.161 207.155C119.086 207.155 118.215 206.788 117.551 206.046C116.895 205.296 116.567 204.311 116.567 203.092L116.567 202.999ZM117.911 203.155C117.911 204.03 118.114 204.733 118.52 205.264C118.926 205.796 119.473 206.061 120.161 206.061C120.848 206.061 121.387 205.796 121.786 205.264C122.192 204.725 122.395 203.967 122.395 202.999C122.395 202.124 122.184 201.421 121.77 200.889C121.364 200.35 120.821 200.077 120.145 200.077C119.477 200.077 118.934 200.342 118.52 200.874C118.114 201.405 117.911 202.167 117.911 203.155Z" fill="#000000" fill-rule="nonzero" opacity="1" stroke="none"/>
<path d="M128.61 206.061C129.086 206.061 129.508 205.917 129.875 205.624C130.239 205.335 130.438 204.967 130.469 204.53L131.75 204.53C131.727 204.979 131.571 205.413 131.282 205.827C131 206.233 130.618 206.557 130.141 206.796C129.661 207.034 129.149 207.155 128.61 207.155C127.536 207.155 126.68 206.796 126.047 206.077C125.411 205.358 125.094 204.382 125.094 203.139L125.094 202.905C125.094 202.147 125.235 201.467 125.516 200.874C125.797 200.272 126.203 199.803 126.735 199.467C127.266 199.135 127.891 198.967 128.61 198.967C129.493 198.967 130.227 199.233 130.813 199.764C131.395 200.296 131.707 200.983 131.75 201.827L130.469 201.827C130.438 201.319 130.243 200.901 129.891 200.577C129.547 200.245 129.118 200.077 128.61 200.077C127.922 200.077 127.383 200.327 127 200.827C126.625 201.319 126.438 202.03 126.438 202.967L126.438 203.217C126.438 204.124 126.625 204.827 127 205.327C127.375 205.819 127.911 206.061 128.61 206.061Z" fill="#000000" fill-rule="nonzero" opacity="1" stroke="none"/>
<path d="M138.155 206.233C137.624 206.85 136.846 207.155 135.827 207.155C134.991 207.155 134.35 206.913 133.905 206.421C133.467 205.932 133.249 205.21 133.249 204.249L133.249 199.108L134.592 199.108L134.592 204.217C134.592 205.417 135.077 206.014 136.046 206.014C137.085 206.014 137.772 205.632 138.108 204.858L138.108 199.108L139.467 199.108L139.467 207.014L138.171 207.014L138.155 206.233Z" fill="#000000" fill-rule="nonzero" opacity="1" stroke="none"/>
<path d="M142.788 199.108L142.819 199.983C143.401 199.307 144.183 198.967 145.163 198.967C146.265 198.967 147.015 199.389 147.413 200.233C147.683 199.858 148.026 199.557 148.444 199.327C148.87 199.089 149.37 198.967 149.944 198.967C151.671 198.967 152.554 199.885 152.585 201.717L152.585 207.014L151.226 207.014L151.226 201.796C151.226 201.233 151.093 200.811 150.835 200.53C150.585 200.249 150.151 200.108 149.538 200.108C149.038 200.108 148.62 200.26 148.288 200.561C147.964 200.866 147.776 201.264 147.726 201.764L147.726 207.014L146.366 207.014L146.366 201.842C146.366 200.686 145.804 200.108 144.679 200.108C143.792 200.108 143.183 200.491 142.851 201.249L142.851 207.014L141.507 207.014L141.507 199.108L142.788 199.108Z" fill="#000000" fill-rule="nonzero" opacity="1" stroke="none"/>
<path d="M157.893 207.155C156.819 207.155 155.944 206.807 155.268 206.108C154.6 205.401 154.268 204.46 154.268 203.28L154.268 203.03C154.268 202.249 154.416 201.553 154.721 200.936C155.022 200.323 155.44 199.842 155.971 199.499C156.51 199.147 157.096 198.967 157.721 198.967C158.752 198.967 159.549 199.307 160.112 199.983C160.682 200.663 160.971 201.632 160.971 202.889L160.971 203.452L155.627 203.452C155.647 204.233 155.869 204.866 156.299 205.342C156.737 205.823 157.291 206.061 157.971 206.061C158.448 206.061 158.85 205.964 159.174 205.764C159.506 205.569 159.799 205.311 160.049 204.999L160.877 205.639C160.209 206.651 159.213 207.155 157.893 207.155ZM157.721 200.077C157.178 200.077 156.721 200.276 156.346 200.671C155.979 201.069 155.756 201.624 155.674 202.342L159.627 202.342L159.627 202.233C159.584 201.557 159.397 201.03 159.065 200.655C158.741 200.272 158.291 200.077 157.721 200.077Z" fill="#000000" fill-rule="nonzero" opacity="1" stroke="none"/>
<path d="M163.814 199.108L163.861 200.108C164.463 199.35 165.252 198.967 166.22 198.967C167.896 198.967 168.74 199.913 168.752 201.796L168.752 207.014L167.408 207.014L167.408 201.78C167.396 201.217 167.26 200.803 167.002 200.53C166.752 200.249 166.353 200.108 165.814 200.108C165.377 200.108 164.99 200.229 164.658 200.467C164.334 200.698 164.08 201.007 163.892 201.389L163.892 207.014L162.533 207.014L162.533 199.108L163.814 199.108Z" fill="#000000" fill-rule="nonzero" opacity="1" stroke="none"/>
<path d="M172.627 197.202L172.627 199.108L174.095 199.108L174.095 200.155L172.627 200.155L172.627 205.061C172.627 205.374 172.689 205.616 172.814 205.78C172.947 205.936 173.173 206.014 173.486 206.014C173.642 206.014 173.853 205.983 174.127 205.921L174.127 207.014C173.771 207.108 173.427 207.155 173.095 207.155C172.49 207.155 172.033 206.975 171.72 206.608C171.416 206.245 171.267 205.729 171.267 205.061L171.267 200.155L169.83 200.155L169.83 199.108L171.267 199.108L171.267 197.202L172.627 197.202Z" fill="#000000" fill-rule="nonzero" opacity="1" stroke="none"/>
<path d="M180.558 207.014C180.472 206.858 180.405 206.585 180.355 206.186C179.73 206.835 178.98 207.155 178.105 207.155C177.331 207.155 176.698 206.936 176.198 206.499C175.698 206.061 175.448 205.507 175.448 204.827C175.448 204.007 175.761 203.366 176.386 202.905C177.011 202.448 177.89 202.217 179.026 202.217L180.339 202.217L180.339 201.608C180.339 201.132 180.198 200.757 179.917 200.483C179.636 200.202 179.218 200.061 178.667 200.061C178.187 200.061 177.78 200.182 177.448 200.421C177.124 200.663 176.964 200.96 176.964 201.311L175.605 201.311C175.605 200.917 175.745 200.538 176.026 200.171C176.308 199.796 176.687 199.507 177.167 199.296C177.644 199.077 178.171 198.967 178.745 198.967C179.659 198.967 180.374 199.198 180.886 199.655C181.405 200.104 181.671 200.729 181.683 201.53L181.683 205.171C181.683 205.889 181.776 206.467 181.964 206.905L181.964 207.014L180.558 207.014ZM178.308 205.983C178.733 205.983 179.136 205.874 179.511 205.655C179.894 205.436 180.171 205.151 180.339 204.796L180.339 203.186L179.276 203.186C177.62 203.186 176.792 203.671 176.792 204.639C176.792 205.057 176.933 205.385 177.214 205.624C177.503 205.866 177.87 205.983 178.308 205.983Z" fill="#000000" fill-rule="nonzero" opacity="1" stroke="none"/>
<path d="M185.644 197.202L185.644 199.108L187.113 199.108L187.113 200.155L185.644 200.155L185.644 205.061C185.644 205.374 185.706 205.616 185.831 205.78C185.964 205.936 186.191 206.014 186.503 206.014C186.659 206.014 186.87 205.983 187.144 205.921L187.144 207.014C186.788 207.108 186.445 207.155 186.113 207.155C185.507 207.155 185.05 206.975 184.738 206.608C184.433 206.245 184.284 205.729 184.284 205.061L184.284 200.155L182.847 200.155L182.847 199.108L184.284 199.108L184.284 197.202L185.644 197.202Z" fill="#000000" fill-rule="nonzero" opacity="1" stroke="none"/>
<path d="M190.153 207.014L188.809 207.014L188.809 199.108L190.153 199.108L190.153 207.014ZM188.7 197.014C188.7 196.796 188.766 196.616 188.903 196.467C189.036 196.311 189.235 196.233 189.497 196.233C189.755 196.233 189.954 196.311 190.091 196.467C190.223 196.616 190.294 196.796 190.294 197.014C190.294 197.233 190.223 197.417 190.091 197.561C189.954 197.71 189.755 197.78 189.497 197.78C189.235 197.78 189.036 197.71 188.903 197.561C188.766 197.417 188.7 197.233 188.7 197.014Z" fill="#000000" fill-rule="nonzero" opacity="1" stroke="none"/>
<path d="M191.969 202.999C191.969 202.217 192.117 201.522 192.422 200.905C192.723 200.292 193.145 199.819 193.688 199.483C194.227 199.139 194.848 198.967 195.547 198.967C196.617 198.967 197.489 199.342 198.157 200.092C198.821 200.835 199.157 201.823 199.157 203.061L199.157 203.155C199.157 203.928 199.004 204.62 198.703 205.233C198.41 205.839 197.989 206.311 197.438 206.655C196.895 206.991 196.27 207.155 195.563 207.155C194.489 207.155 193.617 206.788 192.953 206.046C192.297 205.296 191.969 204.311 191.969 203.092L191.969 202.999ZM193.313 203.155C193.313 204.03 193.516 204.733 193.922 205.264C194.328 205.796 194.875 206.061 195.563 206.061C196.25 206.061 196.789 205.796 197.188 205.264C197.594 204.725 197.797 203.967 197.797 202.999C197.797 202.124 197.586 201.421 197.172 200.889C196.766 200.35 196.223 200.077 195.547 200.077C194.879 200.077 194.336 200.342 193.922 200.874C193.516 201.405 193.313 202.167 193.313 203.155Z" fill="#000000" fill-rule="nonzero" opacity="1" stroke="none"/>
<path d="M202.121 199.108L202.168 200.108C202.77 199.35 203.559 198.967 204.528 198.967C206.203 198.967 207.047 199.913 207.059 201.796L207.059 207.014L205.715 207.014L205.715 201.78C205.703 201.217 205.567 200.803 205.309 200.53C205.059 200.249 204.66 200.108 204.121 200.108C203.684 200.108 203.297 200.229 202.965 200.467C202.641 200.698 202.387 201.007 202.199 201.389L202.199 207.014L200.84 207.014L200.84 199.108L202.121 199.108Z" fill="#000000" fill-rule="nonzero" opacity="1" stroke="none"/>
<path d="M214.073 199.108L214.104 199.983C214.686 199.307 215.467 198.967 216.448 198.967C217.549 198.967 218.299 199.389 218.698 200.233C218.967 199.858 219.311 199.557 219.729 199.327C220.155 199.089 220.655 198.967 221.229 198.967C222.955 198.967 223.838 199.885 223.869 201.717L223.869 207.014L222.51 207.014L222.51 201.796C222.51 201.233 222.377 200.811 222.119 200.53C221.869 200.249 221.436 200.108 220.823 200.108C220.323 200.108 219.905 200.26 219.573 200.561C219.248 200.866 219.061 201.264 219.01 201.764L219.01 207.014L217.651 207.014L217.651 201.842C217.651 200.686 217.088 200.108 215.963 200.108C215.077 200.108 214.467 200.491 214.135 201.249L214.135 207.014L212.791 207.014L212.791 199.108L214.073 199.108Z" fill="#000000" fill-rule="nonzero" opacity="1" stroke="none"/>
<path d="M225.552 202.999C225.552 202.217 225.701 201.522 226.006 200.905C226.306 200.292 226.728 199.819 227.271 199.483C227.81 199.139 228.431 198.967 229.131 198.967C230.201 198.967 231.072 199.342 231.74 200.092C232.404 200.835 232.74 201.823 232.74 203.061L232.74 203.155C232.74 203.928 232.588 204.62 232.287 205.233C231.994 205.839 231.572 206.311 231.021 206.655C230.478 206.991 229.853 207.155 229.146 207.155C228.072 207.155 227.201 206.788 226.537 206.046C225.881 205.296 225.552 204.311 225.552 203.092L225.552 202.999ZM226.896 203.155C226.896 204.03 227.099 204.733 227.506 205.264C227.912 205.796 228.459 206.061 229.146 206.061C229.834 206.061 230.373 205.796 230.771 205.264C231.177 204.725 231.381 203.967 231.381 202.999C231.381 202.124 231.17 201.421 230.756 200.889C230.349 200.35 229.806 200.077 229.131 200.077C228.463 200.077 227.92 200.342 227.506 200.874C227.099 201.405 226.896 202.167 226.896 203.155Z" fill="#000000" fill-rule="nonzero" opacity="1" stroke="none"/>
<path d="M234.095 202.999C234.095 201.792 234.381 200.819 234.955 200.077C235.537 199.339 236.291 198.967 237.22 198.967C238.146 198.967 238.881 199.288 239.423 199.921L239.423 195.796L240.767 195.796L240.767 207.014L239.533 207.014L239.455 206.171C238.923 206.827 238.173 207.155 237.205 207.155C236.287 207.155 235.537 206.78 234.955 206.03C234.381 205.28 234.095 204.307 234.095 203.108L234.095 202.999ZM235.455 203.155C235.455 204.053 235.634 204.757 236.002 205.264C236.377 205.764 236.884 206.014 237.533 206.014C238.396 206.014 239.025 205.632 239.423 204.858L239.423 201.233C239.017 200.483 238.392 200.108 237.548 200.108C236.892 200.108 236.377 200.37 236.002 200.889C235.634 201.401 235.455 202.155 235.455 203.155Z" fill="#000000" fill-rule="nonzero" opacity="1" stroke="none"/>
<path d="M247.746 206.233C247.215 206.85 246.438 207.155 245.418 207.155C244.582 207.155 243.942 206.913 243.496 206.421C243.059 205.932 242.84 205.21 242.84 204.249L242.84 199.108L244.184 199.108L244.184 204.217C244.184 205.417 244.668 206.014 245.637 206.014C246.676 206.014 247.364 205.632 247.7 204.858L247.7 199.108L249.059 199.108L249.059 207.014L247.762 207.014L247.746 206.233Z" fill="#000000" fill-rule="nonzero" opacity="1" stroke="none"/>
<path d="M252.567 207.014L251.223 207.014L251.223 195.796L252.567 195.796L252.567 207.014Z" fill="#000000" fill-rule="nonzero" opacity="1" stroke="none"/>
<path d="M258.008 207.155C256.934 207.155 256.059 206.807 255.383 206.108C254.715 205.401 254.383 204.46 254.383 203.28L254.383 203.03C254.383 202.249 254.532 201.553 254.836 200.936C255.137 200.323 255.555 199.842 256.086 199.499C256.625 199.147 257.211 198.967 257.836 198.967C258.868 198.967 259.664 199.307 260.227 199.983C260.797 200.663 261.086 201.632 261.086 202.889L261.086 203.452L255.743 203.452C255.762 204.233 255.985 204.866 256.414 205.342C256.852 205.823 257.407 206.061 258.086 206.061C258.563 206.061 258.965 205.964 259.289 205.764C259.621 205.569 259.914 205.311 260.164 204.999L260.993 205.639C260.325 206.651 259.328 207.155 258.008 207.155ZM257.836 200.077C257.293 200.077 256.836 200.276 256.461 200.671C256.094 201.069 255.871 201.624 255.789 202.342L259.743 202.342L259.743 202.233C259.7 201.557 259.512 201.03 259.18 200.655C258.856 200.272 258.407 200.077 257.836 200.077Z" fill="#000000" fill-rule="nonzero" opacity="1" stroke="none"/>
</g>
</g>
</svg>
